<svg width="12" height="13" viewBox="0 0 12 13" fill="none" xmlns="http://www.w3.org/2000/svg">
<path d="M0 4.07951V0.679918C0 0.304436 0.298482 0 0.666667 0H4C4.36818 0 4.66667 0.304436 4.66667 0.679918V3.39959C4.66667 3.77507 4.36818 4.07951 4 4.07951H2.66667C2.66667 7.08353 5.05448 9.51885 8 9.51885V8.15902C8 7.78353 8.29848 7.4791 8.66667 7.4791H11.3333C11.7015 7.4791 12 7.78353 12 8.15902V11.5586C12 11.9341 11.7015 12.2385 11.3333 12.2385H8C3.58173 12.2385 0 8.58563 0 4.07951Z" fill="#5B4029"/>
</svg>
