<svg width="12" height="12" viewBox="0 0 12 12" fill="none" xmlns="http://www.w3.org/2000/svg">
<path fill-rule="evenodd" clip-rule="evenodd" d="M0 5.33333C0 2.81918 0 1.5621 0.781049 0.781049C1.5621 0 2.81918 0 5.33333 0H6.66667C9.18082 0 10.4379 0 11.219 0.781049C12 1.5621 12 2.81918 12 5.33333V6.66667C12 9.18082 12 10.4379 11.219 11.219C10.4379 12 9.18082 12 6.66667 12H5.33333C2.81918 12 1.5621 12 0.781049 11.219C0 10.4379 0 9.18082 0 6.66667V5.33333ZM10 3C10 3.55228 9.55229 4 9 4C8.44772 4 8 3.55228 8 3C8 2.44772 8.44772 2 9 2C9.55229 2 10 2.44772 10 3ZM7.33333 6C7.33333 6.73638 6.73638 7.33333 6 7.33333C5.26362 7.33333 4.66667 6.73638 4.66667 6C4.66667 5.26362 5.26362 4.66667 6 4.66667C6.73638 4.66667 7.33333 5.26362 7.33333 6ZM8.66667 6C8.66667 7.47276 7.47276 8.66667 6 8.66667C4.52724 8.66667 3.33333 7.47276 3.33333 6C3.33333 4.52724 4.52724 3.33333 6 3.33333C7.47276 3.33333 8.66667 4.52724 8.66667 6Z" fill="#5B4029"/>
</svg>
