<svg width="23" height="20" viewBox="0 0 23 20" fill="none" xmlns="http://www.w3.org/2000/svg">
<path d="M6.31156 19.9476C7.20341 20.222 8.7127 19.3987 9.33013 17.9581C9.39874 17.8894 9.46734 17.615 9.67315 16.243C10.2906 12.7442 10.6336 11.3721 11.1138 10.343C11.6627 11.0977 12.2801 12.4697 13.4464 15.9685C13.9266 17.3406 13.9952 17.615 14.0638 17.615C14.9557 18.9871 16.5335 19.6732 17.2882 19.1929C18.1114 18.5755 18.1114 16.8604 17.2196 15.4883C17.2196 15.4883 17.151 15.4883 16.8766 15.2139C13.9266 12.95 12.1429 11.2349 11.3882 10.1372C12.4859 9.93139 14.4754 10.2744 18.3172 11.0977C19.0719 11.3035 19.2091 11.3035 19.2091 11.3035C20.787 11.0977 22.0219 10.1372 22.2277 9.24536C21.9533 8.2163 20.5126 7.32445 18.9347 7.53026C18.9347 7.53026 18.7975 7.59886 17.9742 7.87328C14.4068 9.17675 12.5545 9.79419 11.3882 9.86279C11.7313 8.97094 12.8289 7.59886 15.3673 4.7861C16.1905 3.89425 16.3277 3.68844 16.3277 3.61983C17.0824 2.17915 16.6707 0.395451 15.9161 0.0524317C15.0243 -0.221984 13.515 0.601264 12.8975 2.04194C12.8289 2.11055 12.8289 2.38497 12.5545 3.75704C11.9371 7.11864 11.5941 8.62792 11.1138 9.65698C10.565 8.90234 10.0162 7.46166 8.7127 3.89425C8.36968 2.59078 8.23247 2.45357 8.16387 2.38497C7.27202 0.944283 5.69413 0.326848 4.87088 0.87568C4.11624 1.42451 4.11624 3.13961 5.00809 4.51169C5.00809 4.51169 5.14529 4.58029 5.48831 4.8547C8.43828 7.25584 10.0848 8.76513 10.8394 9.86279C9.81036 10.0686 7.88945 9.72559 4.04763 8.90234C3.22438 8.69653 3.08718 8.69653 3.01857 8.69653C1.44068 8.90234 0.205812 9.79419 0 10.8232C0.274416 11.7151 1.7151 12.6756 3.29299 12.4697L4.32205 12.1267C7.88945 10.7546 9.67315 10.2058 10.8394 10.1372C10.4964 11.0291 9.33013 12.5383 6.65458 15.4883C6.03714 16.243 5.89994 16.3802 5.89994 16.3802C5.14529 17.8208 5.55692 19.6045 6.31156 19.9476Z" fill="#517237"/>
</svg>
