<?xml version="1.0" encoding="utf-8"?>
<!-- Generator: Adobe Illustrator 22.0.1, SVG Export Plug-In . SVG Version: 6.00 Build 0)  -->
<svg version="1.1" id="Layer_1" xmlns="http://www.w3.org/2000/svg" xmlns:xlink="http://www.w3.org/1999/xlink" x="0px" y="0px"
	 viewBox="0 0 68.4 232.8" style="enable-background:new 0 0 68.4 232.8;" xml:space="preserve">
<style type="text/css">
	.st0{fill:none;stroke:#000000;stroke-width:0.75;stroke-miterlimit:10;}
	.st1{fill:#F386A7;}
	.st2{fill:#F9C0C7;}
</style>
<path class="st0" d="M34.6,85.3c0,0-1.2,10.8,3.1,34.5c6.1,33.4,6.9,89.6,6.2,105.3"/>
<g>
	<path class="st1" d="M66.2,44.7c0-20.4-14.3-37-32-37c-17.7,0-32,16.6-32,37c0,19.6,13.1,35.6,29.7,36.9l-2.6,5.5L39,87l-2.3-5.4
		C53.2,80.1,66.2,64.2,66.2,44.7z"/>
</g>
<path class="st2" d="M47.3,20.3c1-2.7,5.4-0.8,7.3,3.1c1.9,4,4,10.1,2.3,12.2"/>
</svg>
