<?xml version="1.0" encoding="utf-8"?>
<!-- Generator: Adobe Illustrator 22.1.0, SVG Export Plug-In . SVG Version: 6.00 Build 0)  -->
<svg version="1.1" xmlns="http://www.w3.org/2000/svg" xmlns:xlink="http://www.w3.org/1999/xlink" x="0px" y="0px"
	 viewBox="0 0 180.1 183.9" style="enable-background:new 0 0 180.1 183.9;" xml:space="preserve">
<style type="text/css">
	.st0{fill:#EF94A2;}
	.st1{fill:#FDEF90;}
	.st2{fill:#FFFFFF;}
	.st3{fill:#FBE297;}
	.st4{fill:#FDF4DB;}
	.st5{fill:#F09DA7;}
	.st6{fill:#F8D6D7;}
	.st7{fill:#BEBEBF;}
	.st8{fill:#9AD2D3;}
	.st9{fill:#E8F2ED;}
	.st10{fill:#FADA9A;}
	.st11{fill:#FFFADB;}
	.st12{fill:#E31D35;}
	.st13{fill:#4C57A2;}
	.st14{fill:#252A60;}
	.st15{fill:#7ACBF1;}
	.st16{fill:#CBE7F8;}
	.st17{fill:#9EA6D4;}
	.st18{fill:#DBD2E8;}
	.st19{fill:#714E41;}
	.st20{fill:#FBE191;}
	.st21{fill:#FDE155;}
	.st22{fill:#97B83C;}
	.st23{fill:#5FC0CE;}
	.st24{fill:#F7921E;}
	.st25{fill:#FFD100;}


	<!-- custom style -->
	#right{
		transform-origin: 160px 70px;
		transform:rotate(40deg);
		animation: fire 5s ease-in-out infinite;
	}
	#right_x5F_2{
		transform-origin: 135px 35px;
		transform:rotate(40deg);
		animation: fire 7s ease-in-out infinite;
	}
	#left{
		transform-origin: 15px 70px;
		transform:rotate(30deg);
		animation: fire 3s ease-in-out infinite;
	}
	#left_x5F_2{
		transform-origin: 45px 35px;
		transform:rotate(40deg);
		animation: fire 6s ease-in-out infinite;
	}

	#center{
		transform-origin: 90px 25px;
		transform:rotate(40deg);
		animation: fire 4s ease-in-out infinite;
	}

	<!-- keyframe -->
	@keyframes fire {
	    0% {transform:rotate(0deg)}
	    25% {transform:rotate(20deg)}
	    50% {transform:rotate(0deg)}
	    75% {transform:rotate(-20deg)}
	    100% {transform:rotate(0deg)}
	}
</style>
<g id="Layer_1">
	<g id="cake">
		<path class="st0" d="M176.4,130.5c-1.6-1.1-3.6-1.8-5.7-2.4c1.8-0.8,3.4-1.7,4.5-3c2-2.2,2.4-4.4,1.2-6.8
			c-1.2-2.3-3.8-4.1-7.8-5.3c-2.2-0.7-4.5-1-6.8-1.1c1.2-1.1,2-2.3,2.3-3.7c0.5-2.5-0.7-4.6-3.4-6.5s-6.2-3-10.7-3.3
			c-2.5-0.2-4.8,0-6.9,0.4c0.4-1.2,0.3-2.6-0.3-3.9c-1.2-2.4-3.6-4.2-7.4-5.5c-3.7-1.2-7.8-1.5-12.1-0.9c-4.2,0.6-7.4,1.9-9.6,4
			c-7.3-1.2-15.1-1.9-23.1-1.9c-8.9,0-17.4,0.9-25.4,2.3c0,0,0,0-0.1-0.1c-2.3-2.1-5.6-3.5-9.8-4c-4.3-0.6-8.3-0.3-12,1.1
			c-3.7,1.2-6.1,3.1-7.2,5.5c-0.6,1.3-0.7,2.7-0.2,3.9c-2.2-0.4-4.5-0.5-6.9-0.3c-4.3,0.3-7.9,1.4-10.6,3.4s-3.7,4.1-3.2,6.6
			c0.3,1.4,1.2,2.6,2.4,3.7c-2.3,0.1-4.6,0.5-6.7,1.2c-3.8,1.2-6.4,3-7.6,5.3c-1.2,2.4-0.8,4.6,1.3,6.8c1.2,1.2,2.7,2.2,4.6,3
			c-2.1,0.6-3.9,1.3-5.5,2.4c-2.8,1.9-4,4-3.7,6.5c0.4,2.4,2.3,4.5,5.7,6.1c1.9,0.9,4,1.5,6.2,1.8c-1.6,1-2.9,2-3.7,3.4
			c-1.4,2.3-1.2,4.6,0.9,6.8c1.9,2.2,5,3.7,9.2,4.5c2.4,0.5,4.7,0.6,7,0.4c-0.9,1.2-1.2,2.5-1.2,3.8c0.2,2.5,1.9,4.5,5.2,6.1
			s7.1,2.4,11.4,2.3c2.5-0.1,4.7-0.4,6.7-1.1c-0.1,1.2,0.4,2.6,1.4,3.8c1.8,2.2,4.7,3.8,8.8,4.7s8.2,0.8,12.2-0.2
			c2.3-0.6,4.1-1.3,5.7-2.3c0.8,1.2,2,2.3,3.8,3.3c3.2,1.7,6.9,2.6,11.2,2.6c4.4,0,8.2-0.9,11.2-2.7c1.7-1,3-2.1,3.7-3.4
			c1.5,1,3.5,1.7,5.8,2.3c4,1,8.1,1,12.2,0.1c4-1,7-2.5,8.7-4.8c1-1.2,1.4-2.6,1.3-3.8c2,0.6,4.3,1,6.7,1c4.4,0.1,8.2-0.7,11.4-2.4
			s4.9-3.7,5-6.2c0.1-1.4-0.4-2.7-1.2-3.8c2.3,0.1,4.6,0,6.9-0.5c4.1-0.9,7.2-2.3,9-4.6c1.9-2.2,2.1-4.5,0.7-6.8
			c-0.9-1.3-2.1-2.4-3.7-3.4c2.2-0.4,4.2-1,6.1-1.8c3.4-1.6,5.2-3.7,5.5-6.1C180.6,134.5,179.3,132.3,176.4,130.5z"/>
		<path class="st1" d="M20.2,97.7v29.7c0,24.1,31.2,43.6,69.8,43.6c38.5,0,69.8-19.5,69.8-43.6V97.7H20.2L20.2,97.7z"/>
		<path class="st2" d="M89.9,155.4c-39.2,0-71.2-20.2-71.2-45h2.7c0,23.3,30.7,42.3,68.5,42.3s68.5-18.9,68.5-42.3h2.7
			C161.1,135.2,129.2,155.4,89.9,155.4L89.9,155.4z"/>
		<path class="st3" d="M89.9,172.5c-39.2,0-71.2-20.2-71.2-45v-31H161v31C161.1,152.3,129.2,172.5,89.9,172.5L89.9,172.5z
			 M21.5,99.1v28.3c0,23.3,30.7,42.3,68.5,42.3s68.5-18.9,68.5-42.3V99.1H21.5L21.5,99.1z"/>
		<g>
			<ellipse class="st4" cx="89.9" cy="96.2" rx="69.8" ry="43.6"/>
			<path class="st3" d="M89.9,141.3c-39.2,0-71.2-20.2-71.2-45s31.9-45,71.2-45s71.2,20.2,71.2,45S129.2,141.3,89.9,141.3
				L89.9,141.3z M89.9,53.9c-37.8,0-68.5,19-68.5,42.3s30.7,42.3,68.5,42.3s68.5-18.9,68.5-42.3C158.4,73,127.6,53.9,89.9,53.9
				L89.9,53.9z"/>
		</g>
		<g>
			<polygon class="st5" points="79.4,31.2 97,31.2 92.2,62 84.6,62 			"/>
			<path class="st6" d="M97,31.2c0,1.7-3.9,3.1-8.7,3.1s-8.8-1.4-8.8-3.1c0-1.7,3.9-3.1,8.7-3.1C93.1,28.1,97,29.5,97,31.2z"/>
			<polygon class="st7" points="88.5,31.2 87.8,31.2 87.8,28.1 88.5,28.1 			"/>
			<g>
				<path class="st2" d="M80.3,36.2c2.5,2.3,6.4,4.8,11.4,4.8c1.2,0,2.5-0.2,3.7-0.5l0.1-0.9c-7.3,2-12.7-1.7-15.6-4.7L80.3,36.2z"
					/>
				<path class="st2" d="M92.9,57.9l0.1-0.8c-3.8,0.4-7.1-0.9-9.6-2.5l0.2,1c2.2,1.3,5,2.4,8.3,2.4C92.1,58,92.5,58,92.9,57.9z"/>
				<path class="st2" d="M81.3,42.6l0.2,1.1c2.5,1.9,6,3.7,10.2,3.7c0.9,0,1.8-0.1,2.8-0.3l0.1-0.8C88.8,47.5,84.2,45.1,81.3,42.6z"
					/>
				<path class="st2" d="M82.5,49.6l0.2,1c2.4,1.6,5.5,2.9,9,2.9c0.6,0,1.2,0,1.8-0.1l0.1-0.8C89,53.2,85.3,51.5,82.5,49.6z"/>
			</g>
		</g>
		<g>
			<polygon class="st8" points="36,44.2 52.9,39.6 56.5,70.6 49.2,72.6 			"/>
			<path class="st9" d="M52.9,39.6c0.5,1.6-3,4-7.6,5.3c-4.7,1.2-8.8,1-9.2-0.7c-0.5-1.6,3-4,7.6-5.3C48.3,37.7,52.4,38,52.9,39.6z"
				/>
			<polygon class="st7" points="44.8,41.8 44.1,42 43.3,39.1 44.1,38.9 			"/>
			<g>
				<path class="st2" d="M38.1,48.8c3.1,1.5,7.5,3,12.3,1.6c1.2-0.3,2.3-0.8,3.6-1.4l-0.1-0.9c-6.5,3.8-12.7,1.6-16.2-0.4L38.1,48.8
					z"/>
				<path class="st2" d="M56,66.4l-0.1-0.8c-3.7,1.3-7.1,1.1-9.9,0.1l0.4,0.9c2.5,0.7,5.5,1,8.5,0.1C55.3,66.7,55.6,66.5,56,66.4z"
					/>
				<path class="st2" d="M40.9,54.7l0.5,1c3,1.2,6.7,2,10.9,1c0.9-0.2,1.7-0.6,2.6-1l-0.2-0.8C49.4,57.5,44.4,56.3,40.9,54.7z"/>
				<path class="st2" d="M43.9,61.1l0.4,0.9c2.7,1,6.1,1.3,9.5,0.4c0.6-0.2,1.2-0.4,1.7-0.6L55.4,61C51.1,63,47,62.3,43.9,61.1z"/>
			</g>
		</g>
		<g>
			<polygon class="st10" points="125.3,37.4 142.4,41.4 130.9,70.3 123.4,68.5 			"/>
			<path class="st11" d="M142.4,41.4c-0.4,1.6-4.5,2.1-9.2,1.1c-4.7-1.1-8.3-3.3-7.9-5c0.4-1.6,4.5-2.1,9.2-1.1
				C139.3,37.5,142.8,39.7,142.4,41.4z"/>
			<polygon class="st7" points="134.3,39.4 133.5,39.3 134.2,36.3 134.9,36.5 			"/>
			<g>
				<path class="st2" d="M125,42.4c1.9,2.8,5.2,6.1,10.1,7.3c1.2,0.3,2.4,0.4,3.8,0.4l0.3-0.8c-7.5,0.3-11.9-4.5-14.1-8.1L125,42.4z
					"/>
				<path class="st2" d="M132.3,66.4l0.3-0.7c-3.8-0.6-6.7-2.5-8.7-4.6l-0.1,1c1.9,1.8,4.3,3.5,7.5,4.1
					C131.7,66.3,132.1,66.3,132.3,66.4z"/>
				<path class="st2" d="M124.7,48.9l-0.1,1.1c2,2.5,5,5,9.1,6c0.9,0.2,1.7,0.3,2.7,0.4l0.3-0.8C130.8,55.5,127,52,124.7,48.9z"/>
				<path class="st2" d="M124.2,56l-0.1,1c1.9,2.1,4.6,4,8.2,4.9c0.6,0.1,1.2,0.2,1.7,0.3l0.3-0.8C129.8,61,126.4,58.5,124.2,56z"/>
			</g>
		</g>
		<g>
			<path class="st12" d="M109.9,65.2c0,0-15.5,1.1-11.1-10.5c4.3-11.5,9.5-16,14.6-8.8C118.6,53.1,125,64.5,109.9,65.2z"/>
			<ellipse class="st2" cx="104.2" cy="52.6" rx="0.6" ry="1.1"/>
			<path class="st2" d="M108.8,48c0,0.6-0.3,1.1-0.6,1.1c-0.3,0-0.6-0.5-0.6-1.1c0-0.6,0.3-1.1,0.6-1.1
				C108.5,47,108.8,47.5,108.8,48z"/>
			<path class="st2" d="M113.7,51.6c0,0.6-0.3,1.1-0.6,1.1c-0.3,0-0.6-0.5-0.6-1.1c0-0.6,0.3-1.1,0.6-1.1
				C113.4,50.6,113.7,51.1,113.7,51.6z"/>
			<path class="st2" d="M110,54.8c0,0.6-0.3,1.1-0.6,1.1s-0.6-0.5-0.6-1.1c0-0.6,0.3-1.1,0.6-1.1S110,54.2,110,54.8z"/>
			<path class="st2" d="M115.3,57.1c0,0.6-0.3,1.1-0.6,1.1c-0.3,0-0.6-0.5-0.6-1.1s0.3-1.1,0.6-1.1
				C115.1,56.1,115.3,56.5,115.3,57.1z"/>
			<path class="st2" d="M102.9,58.2c0,0.6-0.3,1.1-0.6,1.1c-0.3,0-0.6-0.5-0.6-1.1s0.3-1.1,0.6-1.1
				C102.6,57.2,102.9,57.7,102.9,58.2z"/>
			<path class="st2" d="M107.1,61.8c0,0.6-0.3,1.1-0.6,1.1c-0.3,0-0.6-0.5-0.6-1.1s0.3-1.1,0.6-1.1
				C106.8,60.8,107.1,61.2,107.1,61.8z"/>
			<path class="st2" d="M113.1,61.8c0,0.6-0.3,1.1-0.6,1.1c-0.3,0-0.6-0.5-0.6-1.1s0.3-1.1,0.6-1.1
				C112.8,60.8,113.1,61.2,113.1,61.8z"/>
		</g>
		<g>
			<path class="st12" d="M69.6,64.5c0,0-15.5,1.1-11.1-10.5c4.3-11.5,9.5-16,14.6-8.8C78.3,52.3,84.7,63.8,69.6,64.5z"/>
			<path class="st2" d="M64.5,51.9c0,0.6-0.3,1.1-0.6,1.1s-0.6-0.5-0.6-1.1c0-0.6,0.3-1.1,0.6-1.1C64.2,50.9,64.5,51.3,64.5,51.9z"
				/>
			<path class="st2" d="M68.6,47.3c0,0.6-0.3,1.1-0.6,1.1c-0.3,0-0.6-0.5-0.6-1.1c0-0.6,0.3-1.1,0.6-1.1
				C68.3,46.4,68.6,46.7,68.6,47.3z"/>
			<path class="st2" d="M73.5,50.9c0,0.6-0.3,1.1-0.6,1.1c-0.3,0-0.6-0.5-0.6-1.1c0-0.6,0.3-1.1,0.6-1.1
				C73.2,49.9,73.5,50.4,73.5,50.9z"/>
			<path class="st2" d="M69.7,54c0,0.6-0.3,1.1-0.6,1.1c-0.3,0-0.6-0.5-0.6-1.1c0-0.6,0.3-1.1,0.6-1.1C69.4,53.1,69.7,53.6,69.7,54z
				"/>
			<path class="st2" d="M75.1,56.3c0,0.6-0.3,1.1-0.6,1.1c-0.3,0-0.6-0.5-0.6-1.1c0-0.6,0.3-1.1,0.6-1.1
				C74.8,55.4,75.1,55.8,75.1,56.3z"/>
			<path class="st2" d="M62.5,57.5c0,0.6-0.3,1.1-0.6,1.1s-0.6-0.5-0.6-1.1s0.3-1.1,0.6-1.1C62.3,56.5,62.5,56.9,62.5,57.5z"/>
			<path class="st2" d="M66.8,61.1c0,0.6-0.3,1.1-0.6,1.1c-0.3,0-0.6-0.5-0.6-1.1s0.3-1.1,0.6-1.1C66.5,60.1,66.8,60.6,66.8,61.1z"
				/>
			<path class="st2" d="M72.9,61.1c0,0.6-0.3,1.1-0.6,1.1c-0.3,0-0.6-0.5-0.6-1.1S72,60,72.3,60C72.6,60.1,72.9,60.6,72.9,61.1z"/>
		</g>
		<g>
			<path class="st12" d="M145.7,83.2c0,0-15.5,1.1-11.1-10.5c4.3-11.5,9.5-16,14.6-8.8C154.4,71,160.9,82.5,145.7,83.2z"/>
			<path class="st2" d="M140.6,70.6c0,0.6-0.3,1.1-0.6,1.1s-0.6-0.5-0.6-1.1s0.3-1.1,0.6-1.1C140.4,69.6,140.6,70,140.6,70.6z"/>
			<path class="st2" d="M144.6,65.9c0,0.6-0.3,1.1-0.6,1.1s-0.5-0.5-0.5-1.1s0.3-1.1,0.6-1.1C144.4,65,144.6,65.5,144.6,65.9z"/>
			<path class="st2" d="M149.5,69.6c0,0.6-0.3,1.1-0.6,1.1s-0.6-0.5-0.6-1.1s0.3-1.1,0.6-1.1C149.3,68.5,149.5,69,149.5,69.6z"/>
			<path class="st2" d="M145.8,72.8c0,0.6-0.3,1.1-0.6,1.1s-0.6-0.5-0.6-1.1s0.3-1.1,0.6-1.1C145.6,71.7,145.8,72.2,145.8,72.8z"/>
			<path class="st2" d="M151.2,75.1c0,0.6-0.3,1.1-0.6,1.1s-0.6-0.5-0.6-1.1s0.3-1.1,0.6-1.1C151,74,151.2,74.5,151.2,75.1z"/>
			<path class="st2" d="M138.7,76.1c0,0.6-0.3,1.1-0.6,1.1s-0.6-0.5-0.6-1.1s0.3-1.1,0.6-1.1C138.4,75.2,138.7,75.6,138.7,76.1z"/>
			<path class="st2" d="M142.9,79.8c0,0.6-0.3,1.1-0.6,1.1s-0.6-0.5-0.6-1.1s0.3-1.1,0.6-1.1C142.7,78.7,142.9,79.2,142.9,79.8z"/>
			<path class="st2" d="M149,79.8c0,0.6-0.3,1.1-0.6,1.1s-0.6-0.5-0.6-1.1s0.3-1.1,0.6-1.1C148.7,78.7,149,79.2,149,79.8z"/>
		</g>
		<g>
			<path class="st13" d="M144.7,83c0,2.5-2.4,4.6-5.4,4.6s-5.4-2-5.4-4.6c0-2.5,2.4-4.6,5.4-4.6S144.7,80.5,144.7,83z"/>
			<polygon class="st14" points="138.9,79.6 138,78.8 137.7,80 136.6,79.9 137.1,80.9 136,81.5 137.1,82.1 136.6,83.1 137.7,83 
				138,84.2 138.9,83.4 139.7,84.2 139.9,83 141.1,83.1 140.6,82.1 141.7,81.5 140.6,80.9 141.1,79.9 139.9,80 139.7,78.8 			"/>
		</g>
		<g>
			<ellipse class="st13" cx="132.2" cy="113.6" rx="5.4" ry="4.6"/>
			<polygon class="st14" points="131.7,110.1 130.8,109.4 130.5,110.5 129.4,110.4 129.8,111.5 128.9,112.1 129.8,112.6 
				129.4,113.7 130.5,113.6 130.8,114.6 131.7,114 132.5,114.6 132.8,113.6 134,113.7 133.5,112.6 134.5,112.1 133.5,111.5 
				134,110.4 132.8,110.5 132.5,109.4 			"/>
		</g>
		<g>
			<path class="st13" d="M73.3,64.4c0,2.5-2.4,4.6-5.4,4.6s-5.4-2-5.4-4.6c0-2.5,2.4-4.6,5.4-4.6C70.8,59.9,73.3,61.9,73.3,64.4z"/>
			<polygon class="st14" points="67.3,61 66.5,60.2 66.3,61.3 65.1,61.2 65.5,62.3 64.5,62.9 65.5,63.4 65.1,64.5 66.3,64.4 
				66.5,65.6 67.3,64.8 68.2,65.6 68.5,64.4 69.6,64.5 69.1,63.4 70.1,62.9 69.1,62.3 69.6,61.2 68.5,61.3 68.2,60.2 			"/>
		</g>
		<g>
			<g>
				<path class="st2" d="M47.8,77.5c0,0-8.5,0.3-8.5-5.8c0-5.1,9.3-4.3,8.1-8.3c0,0,9.1,4.2,9,8.3C56.3,75.7,53.5,77.5,47.8,77.5z"
					/>
				<path class="st3" d="M47.6,77.9c-1.4,0-8.6-0.3-8.6-6.1c0-2.9,2.6-3.9,4.9-5c2.3-1,3.7-1.6,3.2-3.2l-0.3-0.7l0.7,0.3
					c0.4,0.2,9.3,4.4,9.2,8.5s-2.9,6.1-8.8,6.1C47.8,77.9,47.7,77.9,47.6,77.9L47.6,77.9z M47.7,64.1c0.1,1.7-1.8,2.5-3.7,3.3
					c-2.2,1-4.5,1.9-4.5,4.3c0,5.2,6.6,5.4,8,5.4h0.2c5.6,0,8.2-1.6,8.2-5.4C56.1,68.6,49.7,65.1,47.7,64.1L47.7,64.1z"/>
			</g>
		</g>
		<g>
			<g>
				<path class="st2" d="M81.1,66.5c0,0-8.5,0.3-8.5-5.8c0-5.1,9.3-4.3,8.1-8.3c0,0,9.1,4.2,9,8.3C89.5,64.8,86.7,66.5,81.1,66.5z"
					/>
				<path class="st3" d="M80.9,66.9c-1.4,0-8.6-0.3-8.6-6.1c0-2.9,2.6-3.9,4.9-5c2.3-1,3.7-1.6,3.2-3.2L80,51.9l0.7,0.3
					c0.4,0.2,9.3,4.4,9.2,8.5c-0.1,4.1-2.9,6.1-8.8,6.1C81.1,66.9,81,66.9,80.9,66.9L80.9,66.9z M81,53.2c0.1,1.7-1.8,2.5-3.7,3.3
					c-2.2,1-4.5,1.9-4.5,4.3c0,5.2,6.6,5.4,8,5.4H81c5.6,0,8.2-1.6,8.2-5.4C89.3,57.6,83,54.1,81,53.2L81,53.2z"/>
			</g>
		</g>
		<g>
			<g>
				<path class="st2" d="M118.8,73.1c0,0-8.5,0.3-8.5-5.8c0-5.1,9.3-4.3,8.1-8.3c0,0,9.1,4.2,9,8.3
					C127.3,71.3,124.5,73.1,118.8,73.1z"/>
				<path class="st3" d="M118.6,73.3c-1.4,0-8.6-0.3-8.6-6.1c0-2.9,2.6-3.9,4.9-5c2.3-1,3.7-1.6,3.2-3.2l-0.3-0.8l0.7,0.3
					c0.4,0.2,9.3,4.4,9.2,8.5c-0.1,4.1-2.9,6.1-8.8,6.1C118.8,73.3,118.7,73.3,118.6,73.3L118.6,73.3z M118.8,59.6
					c0.1,1.7-1.8,2.5-3.7,3.3c-2.2,1-4.5,1.9-4.5,4.3c0,5.2,6.6,5.4,8,5.4h0.2c5.6,0,8.2-1.6,8.2-5.4
					C127.1,64.1,120.7,60.7,118.8,59.6L118.8,59.6z"/>
			</g>
		</g>
		<g>
			<g>
				<path class="st2" d="M147.3,95.8c0,0-8.5,0.3-8.5-5.8c0-5.1,9.3-4.3,8.1-8.3c0,0,9.1,4.2,9,8.3S153.1,95.8,147.3,95.8z"/>
				<path class="st3" d="M147.2,96.1c-1.4,0-8.6-0.3-8.6-6.1c0-2.9,2.6-3.9,4.9-5c2.3-1,3.7-1.6,3.2-3.2l-0.3-0.8l0.7,0.3
					c0.4,0.2,9.3,4.4,9.2,8.5s-2.9,6.1-8.8,6.1C147.3,96.1,147.3,96.1,147.2,96.1L147.2,96.1z M147.3,82.4c0.1,1.7-1.8,2.5-3.7,3.3
					c-2.2,1-4.5,1.9-4.5,4.3c0,5.2,6.6,5.4,8,5.4h0.2c5.6,0,8.2-1.6,8.2-5.4C155.6,86.9,149.3,83.4,147.3,82.4L147.3,82.4z"/>
			</g>
		</g>
		<g>
			<path class="st13" d="M102.2,67c0,2.5,2.4,4.6,5.4,4.6s5.4-2,5.4-4.6c0-2.5-2.4-4.6-5.4-4.6S102.2,64.4,102.2,67z"/>
			<polygon class="st14" points="108.1,63.4 109,62.8 109.2,63.8 110.3,63.7 110,64.8 110.9,65.4 110,65.9 110.3,67 109.2,66.9 
				109,68.1 108.1,67.3 107.3,68.1 107,66.9 105.8,67 106.3,65.9 105.4,65.4 106.3,64.8 105.8,63.7 107,63.8 107.3,62.8 			"/>
		</g>
		<g>
			<polygon class="st15" points="150.2,70.7 167.2,74.6 155.7,103.5 148.3,101.9 			"/>
			<path class="st16" d="M167.2,74.6c-0.4,1.6-4.5,2.1-9.2,1.1c-4.7-1.1-8.3-3.3-7.9-5c0.4-1.6,4.5-2.1,9.2-1.1
				C164.1,70.7,167.6,73,167.2,74.6z"/>
			<polygon class="st7" points="159.1,72.8 158.4,72.6 159.1,69.6 159.8,69.7 			"/>
			<g>
				<path class="st2" d="M149.9,75.6c1.9,2.8,5.2,6.1,10.1,7.3c1.2,0.3,2.4,0.4,3.8,0.4l0.3-0.8c-7.5,0.3-11.9-4.5-14.1-8.1
					L149.9,75.6z"/>
				<path class="st2" d="M157.2,99.7l0.3-0.7c-3.8-0.5-6.7-2.5-8.7-4.6l-0.1,1c1.9,1.8,4.3,3.5,7.5,4.1
					C156.5,99.6,156.8,99.7,157.2,99.7z"/>
				<path class="st2" d="M149.4,82.2l-0.1,1.1c2,2.5,5,5,9.1,6c0.9,0.2,1.7,0.3,2.7,0.4l0.3-0.8C155.6,88.7,151.7,85.3,149.4,82.2z"
					/>
				<path class="st2" d="M149.1,89.3l-0.1,1c1.9,2.1,4.6,4,8.2,4.9c0.6,0.1,1.2,0.2,1.7,0.3l0.3-0.8
					C154.5,94.3,151.3,91.8,149.1,89.3z"/>
			</g>
		</g>
		<g>
			<path class="st12" d="M33.6,84.7c0,0-15.5,1.1-11.1-10.5s9.5-16,14.6-8.8C42.2,72.5,48.7,83.9,33.6,84.7z"/>
			<path class="st2" d="M28.5,72.1c0,0.6-0.3,1.1-0.6,1.1c-0.3,0-0.6-0.5-0.6-1.1s0.3-1.1,0.6-1.1S28.5,71.5,28.5,72.1z"/>
			<path class="st2" d="M32.5,67.5c0,0.6-0.3,1.1-0.6,1.1c-0.3,0-0.6-0.5-0.6-1.1s0.3-1.1,0.6-1.1C32.3,66.4,32.5,66.9,32.5,67.5z"
				/>
			<path class="st2" d="M37.4,71c0,0.6-0.3,1.1-0.6,1.1s-0.6-0.5-0.6-1.1s0.3-1.1,0.6-1.1C37.2,70.1,37.4,70.5,37.4,71z"/>
			<path class="st2" d="M33.7,74.2c0,0.6-0.3,1.1-0.6,1.1s-0.6-0.5-0.6-1.1s0.3-1.1,0.6-1.1C33.4,73.2,33.7,73.6,33.7,74.2z"/>
			<path class="st2" d="M39.1,76.5c0,0.6-0.3,1.1-0.6,1.1s-0.6-0.5-0.6-1.1s0.3-1.1,0.6-1.1C38.8,75.5,39.1,75.9,39.1,76.5z"/>
			<path class="st2" d="M26.5,77.7c0,0.6-0.3,1.1-0.6,1.1c-0.3,0-0.6-0.5-0.6-1.1s0.3-1.1,0.6-1.1C26.3,76.6,26.5,77.1,26.5,77.7z"
				/>
			<path class="st2" d="M30.8,81.2c0,0.6-0.3,1.1-0.6,1.1s-0.6-0.5-0.6-1.1s0.3-1.1,0.6-1.1C30.5,80.2,30.8,80.6,30.8,81.2z"/>
			<path class="st2" d="M36.9,81.2c0,0.6-0.3,1.1-0.6,1.1s-0.6-0.5-0.6-1.1s0.3-1.1,0.6-1.1C36.6,80.3,36.9,80.6,36.9,81.2z"/>
		</g>
		<g>
			<polygon class="st17" points="10.4,74.3 27.3,69.7 30.7,100.6 23.4,102.6 			"/>
			<path class="st18" d="M27.3,69.7c0.5,1.6-3,4-7.6,5.3c-4.7,1.2-8.8,1-9.2-0.7c-0.5-1.6,3-4,7.6-5.3
				C22.6,67.8,26.8,68.1,27.3,69.7z"/>
			<polygon class="st7" points="19.2,71.9 18.4,72.1 17.6,69.1 18.3,68.9 			"/>
			<g>
				<path class="st2" d="M12.5,78.8c3.1,1.5,7.5,3,12.3,1.6c1.2-0.3,2.3-0.8,3.6-1.4l-0.1-0.9c-6.5,3.8-12.7,1.6-16.2-0.4L12.5,78.8
					z"/>
				<path class="st2" d="M30.3,96.5l-0.1-0.8c-3.7,1.3-7.1,1.1-9.9,0.1l0.4,0.9c2.5,0.7,5.5,1,8.5,0.1
					C29.6,96.8,29.9,96.7,30.3,96.5z"/>
				<path class="st2" d="M15.2,84.8l0.5,1c3,1.2,6.7,2,10.9,1c0.9-0.2,1.7-0.6,2.6-1L29.1,85C23.7,87.6,18.6,86.4,15.2,84.8z"/>
				<path class="st2" d="M18.1,91.2l0.4,0.9c2.7,1,6.1,1.3,9.5,0.4c0.6-0.2,1.2-0.4,1.7-0.6l-0.1-0.8C25.3,93,21.3,92.4,18.1,91.2z"
					/>
			</g>
		</g>
		<g>
			<path class="st13" d="M35.2,82.4c0,2.5,2.4,4.6,5.4,4.6s5.4-2,5.4-4.6c0-2.5-2.4-4.6-5.4-4.6S35.2,79.9,35.2,82.4z"/>
			<polygon class="st14" points="41.1,78.9 42,78.1 42.2,79.3 43.4,79.2 42.9,80.3 43.9,80.8 42.9,81.4 43.4,82.5 42.2,82.4 
				42,83.5 41.1,82.8 40.2,83.5 39.9,82.4 38.8,82.5 39.3,81.4 38.3,80.8 39.3,80.3 38.8,79.2 39.9,79.3 40.2,78.1 			"/>
		</g>
		<g>
			<g>
				<path class="st2" d="M27.9,105.7c0,0-8.5,0.3-8.5-5.8c0-5.1,9.3-4.3,8.1-8.3c0,0,9.1,4.2,9,8.3C36.4,104,33.6,105.7,27.9,105.7z
					"/>
				<path class="st3" d="M27.7,106c-0.6,0-2.8-0.1-4.7-0.9c-2.6-1-3.9-2.8-3.9-5.3c0-2.9,2.6-3.9,4.9-5c2.3-1,3.7-1.6,3.2-3.2
					l-0.3-0.7l0.7,0.3c0.4,0.2,9.3,4.4,9.2,8.5c-0.1,4.1-2.9,6.1-8.8,6.1C27.9,106,27.8,106,27.7,106L27.7,106z M27.9,92.3
					c0.1,1.7-1.8,2.5-3.7,3.3c-2.2,1-4.5,1.9-4.5,4.3c0,5.2,6.6,5.4,8,5.4h0.2c5.6,0,8.2-1.6,8.2-5.4C36.2,96.8,29.9,93.3,27.9,92.3
					L27.9,92.3z"/>
			</g>
		</g>
		<g>
			<path class="st19" d="M142.2,91.4c0,11.5-23.4,20.9-52.4,20.9S37.5,103,37.5,91.4c0-11.5,23.5-20.9,52.4-20.9
				S142.2,79.9,142.2,91.4z"/>
			<path class="st20" d="M89.9,108.8c-27.3,0-48.7-7.7-48.7-17.4c0-9.8,21.4-17.4,48.7-17.4s48.7,7.7,48.7,17.4
				C138.7,101.2,117.3,108.8,89.9,108.8L89.9,108.8z M89.9,75.6c-25.5,0-47.1,7.2-47.1,15.8s21.5,15.8,47.1,15.8
				c25.5,0,47.1-7.2,47.1-15.8S115.4,75.6,89.9,75.6L89.9,75.6z"/>
			<g>
				<path class="st2" d="M76.3,88.5h-2.7l1-3.7l-2.9,0.8l-0.5,2.9h-1.7l-0.8-8h2.5v3.1h3.4v-3.1h2.7L76.3,88.5z"/>
				<path class="st2" d="M85.6,88.5h-2.1l-0.6-1.7l-2.8,0.6l-0.9,1.2h-2.4l3.7-8h2.6L85.6,88.5z M82.4,85.5l-1.3-2.3l-0.9,2.3H82.4z
					"/>
				<path class="st2" d="M88.2,86l-0.1,2.5h-2.4l0.7-8h3c1.1,0,1.8,0.2,2.3,0.7c0.6,0.4,0.8,1.1,0.8,1.8c0,0.9-0.3,1.5-0.9,2
					s-1.2,1-2.2,1H88.2z M88.4,82.1v2.1h0.4c0.7,0,1.2-0.1,1.3-0.3c0.2-0.2,0.3-0.5,0.3-0.9c0-0.3-0.1-0.6-0.3-0.7
					c-0.2-0.2-0.6-0.3-1.2-0.3L88.4,82.1L88.4,82.1z"/>
				<path class="st2" d="M95.6,86l-0.1,2.5h-2.4l0.7-8h3c1.1,0,1.8,0.2,2.3,0.7c0.6,0.4,0.8,1.1,0.8,1.8c0,0.9-0.3,1.5-0.9,2
					s-1.2,1-2.2,1H95.6z M95.7,82.1v2.1h0.4c0.7,0,1.1-0.1,1.3-0.3c0.2-0.2,0.3-0.5,0.3-0.9c0-0.3-0.1-0.6-0.3-0.7
					c-0.2-0.2-0.6-0.3-1.2-0.3L95.7,82.1L95.7,82.1z"/>
				<path class="st2" d="M108.3,80.5l-3,5.5l-1,2.5h-2.6l1.3-3l-3-5h2.7l1.2,3.5l1.8-3.5H108.3z"/>
				<path class="st2" d="M58.4,100l-0.3-8h3.2c1.2,0,2,0.2,2.5,0.5s0.7,0.8,0.7,1.3c0,0.8-0.4,1.3-1.2,1.6l0,0
					c1.2,0.3,1.7,0.9,1.7,2c0,0.8-0.3,1.3-0.9,1.8s-1.3,0.7-2.4,0.7L58.4,100L58.4,100z M60.3,93.4v1.5h0.6c0.5,0,0.8,0,1-0.1
					s0.3-0.1,0.4-0.3c0.1-0.1,0.1-0.3,0.1-0.5s0-0.3-0.1-0.4s-0.2-0.2-0.4-0.3c-0.2,0-0.6-0.1-1.1-0.1L60.3,93.4L60.3,93.4z
					 M60.4,96.6v1.8h0.4c0.4,0,0.7,0,0.9,0c0.2,0,0.4-0.1,0.6-0.1c0.2-0.1,0.3-0.2,0.4-0.3s0.1-0.3,0.1-0.5s0-0.4-0.1-0.5
					s-0.2-0.2-0.4-0.3s-0.6-0.1-1.2-0.1H60.4L60.4,96.6z"/>
				<path class="st2" d="M70.7,99.6l-4.8,0.4v-1.2h1.3v-5l-1.6-0.1V92l4.7,0.1v1.2H69l0.5,5.2h1.3L70.7,99.6L70.7,99.6z"/>
				<path class="st2" d="M79.1,100H77l-1.8-2.4H74l-0.5,2.4h-2.1l0.4-8h3.1c1.2,0,1.9,0.2,2.4,0.6s0.8,1,0.8,1.6
					c0,1.1-0.1,1.8-1.2,2.3L79.1,100z M73.8,93.5v1.9h0.6c0.6,0,1-0.1,1.2-0.3c0.2-0.2,0.3-0.5,0.3-0.8s-0.1-0.5-0.3-0.7
					c-0.2-0.2-0.6-0.2-1.1-0.2L73.8,93.5L73.8,93.5z"/>
				<path class="st2" d="M86,94.4l-2.5-1.2v6.7h-2.6l0.9-6.6l-2.7,0.6v-2h7L86,94.4L86,94.4z"/>
				<path class="st2" d="M94.4,100h-2.3l-0.6-3.7h-2.7v3.7l-2.5-0.8l0.8-7.2h1.7v3.1l2.9-0.5L91.5,92h2.4L94.4,100z"/>
				<path class="st2" d="M95.7,99.7L95.2,92l3,0.1c1.2,0,2,0.1,2.6,0.5c0.7,0.3,1.2,0.8,1.5,1.3c0.4,0.6,0.6,1.3,0.6,2.2
					c0,0.8-0.2,1.5-0.6,2.1c-0.4,0.7-0.9,1.1-1.5,1.3c-0.7,0.3-1.5,0.5-2.6,0.5L95.7,99.7z M98.7,93.6l0.4,4.2l0.3,0.4
					c1.5,0,2.3-0.8,2.3-2.3s-0.8-2.3-2.3-2.3C99.4,93.6,98.7,93.6,98.7,93.6z"/>
				<path class="st2" d="M112.1,100h-2.5l-0.6-1.7l-3.4,0.6l-0.4,1.2h-3.5l4.7-8h2.9L112.1,100z M108.4,97l-1.3-2.7l-1,2.7H108.4z"
					/>
				<path class="st2" d="M119.8,92l-2.9,4.9l-0.8,3.1h-2.9l1.1-3l-4-5h3.1l1.9,3.5l1.8-3.5H119.8z"/>
			</g>
			<polygon class="st0" points="55.8,81.3 58.3,82.6 60.8,81.2 60.4,84 62.4,85.9 59.6,86.4 58.5,89 57.1,86.5 54.3,86.1 56.4,84.1 
							"/>
			<polygon class="st21" points="121.4,93.5 124,94.8 126.5,93.4 126,96.2 128.1,98.1 125.3,98.6 124.1,101.2 122.8,98.7 120,98.3 
				122,96.3 			"/>
			<path class="st21" d="M50.7,90.6c0,1.2-1,2.2-2.2,2.2s-2.2-1-2.2-2.2s1-2.2,2.2-2.2C49.7,88.5,50.7,89.5,50.7,90.6z"/>
			<path class="st22" d="M116.1,82.6c0,1.2-1,2.2-2.2,2.2s-2.2-1-2.2-2.2c0-1.2,1-2.2,2.2-2.2S116.1,81.3,116.1,82.6z"/>
			<path class="st23" d="M54.5,94.9c0,0.6-0.5,1.1-1.1,1.1s-1.1-0.5-1.1-1.1s0.5-1.1,1.1-1.1C54.1,93.8,54.5,94.3,54.5,94.9z"/>
			<path class="st23" d="M110.3,87.7c0,0.6-0.5,1.1-1.1,1.1s-1.1-0.5-1.1-1.1s0.5-1.1,1.1-1.1C109.9,86.6,110.3,87,110.3,87.7z"/>
			<path class="st0" d="M128.1,86.5c0,1.2-0.9,2-2,2c-1.2,0-2-0.9-2-2c0-1.2,0.9-2,2-2C127.2,84.5,128.1,85.4,128.1,86.5z"/>
		</g>
		<g>
			<path class="st12" d="M39.1,117.1c0,0-15.5,1.1-11.1-10.5s9.5-16,14.6-8.8C47.8,104.9,54.3,116.4,39.1,117.1z"/>
			<path class="st2" d="M34,104.6c0,0.6-0.3,1.1-0.6,1.1s-0.6-0.5-0.6-1.1s0.3-1.1,0.6-1.1C33.8,103.5,34,104,34,104.6z"/>
			<path class="st2" d="M38,100c0,0.6-0.3,1.1-0.6,1.1s-0.6-0.5-0.6-1.1s0.3-1.1,0.6-1.1C37.8,98.9,38,99.4,38,100z"/>
			<path class="st2" d="M42.9,103.5c0,0.6-0.3,1.1-0.6,1.1s-0.6-0.5-0.6-1.1s0.3-1.1,0.6-1.1C42.6,102.5,42.9,102.9,42.9,103.5z"/>
			<path class="st2" d="M39.2,106.7c0,0.6-0.3,1.1-0.6,1.1s-0.6-0.5-0.6-1.1s0.3-1.1,0.6-1.1C39,105.7,39.2,106.1,39.2,106.7z"/>
			<path class="st2" d="M44.6,109c0,0.6-0.3,1.1-0.6,1.1s-0.6-0.5-0.6-1.1s0.3-1.1,0.6-1.1C44.4,107.9,44.6,108.4,44.6,109z"/>
			<path class="st2" d="M32.1,110.1c0,0.6-0.3,1.1-0.6,1.1s-0.6-0.5-0.6-1.1s0.3-1.1,0.6-1.1S32.1,109.6,32.1,110.1z"/>
			<path class="st2" d="M36.3,113.7c0,0.6-0.3,1.1-0.6,1.1s-0.6-0.5-0.6-1.1s0.3-1.1,0.6-1.1C36.1,112.7,36.3,113.2,36.3,113.7z"/>
			<path class="st2" d="M42.3,113.7c0,0.6-0.3,1.1-0.6,1.1s-0.6-0.5-0.6-1.1s0.3-1.1,0.6-1.1C42.1,112.7,42.3,113.2,42.3,113.7z"/>
		</g>
		<g>
			<g>
				<path class="st2" d="M149.1,110.5c0,0-8.5,0.3-8.5-5.8c0-5.1,9.3-4.3,8.1-8.3c0,0,9.1,4.2,9,8.3
					C157.5,108.8,154.7,110.5,149.1,110.5z"/>
				<path class="st3" d="M148.9,110.9c-0.6,0-2.8-0.1-4.7-0.9c-2.6-1-3.9-2.8-3.9-5.3c0-2.9,2.6-3.9,4.9-5c2.3-1,3.7-1.6,3.2-3.2
					l-0.3-0.8l0.7,0.3c0.4,0.2,9.3,4.4,9.2,8.5s-2.9,6.1-8.8,6.1C149.1,110.9,149,110.9,148.9,110.9L148.9,110.9z M149,97.2
					c0.1,1.7-1.8,2.5-3.7,3.3c-2.2,1-4.5,1.9-4.5,4.3c0,5.2,6.6,5.4,8,5.4h0.2c5.6,0,8.2-1.6,8.2-5.4C157.3,101.6,151,98.1,149,97.2
					L149,97.2z"/>
			</g>
		</g>
		<g>
			<path class="st12" d="M142.5,119.8c0,0-15.5,1.1-11.1-10.5c4.3-11.5,9.5-16,14.6-8.8C151.3,107.6,157.7,119.1,142.5,119.8z"/>
			<path class="st2" d="M137.4,107.2c0,0.6-0.3,1.1-0.6,1.1s-0.6-0.5-0.6-1.1s0.3-1.1,0.6-1.1C137.2,106.2,137.4,106.7,137.4,107.2z
				"/>
			<path class="st2" d="M141.5,102.6c0,0.6-0.3,1.1-0.6,1.1s-0.6-0.5-0.6-1.1s0.3-1.1,0.6-1.1C141.3,101.6,141.5,102.1,141.5,102.6z
				"/>
			<path class="st2" d="M146.4,106.2c0,0.6-0.3,1.1-0.6,1.1s-0.6-0.5-0.6-1.1s0.3-1.1,0.6-1.1S146.4,105.6,146.4,106.2z"/>
			<path class="st2" d="M142.6,109.4c0,0.6-0.3,1.1-0.6,1.1s-0.5-0.6-0.5-1.1s0.3-1.1,0.6-1.1C142.4,108.3,142.6,108.8,142.6,109.4z
				"/>
			<path class="st2" d="M148,111.7c0,0.6-0.3,1.1-0.6,1.1s-0.6-0.5-0.6-1.1s0.3-1.1,0.6-1.1C147.8,110.6,148,111.1,148,111.7z"/>
			<path class="st2" d="M135.5,112.8c0,0.6-0.3,1.1-0.6,1.1s-0.6-0.5-0.6-1.1s0.3-1.1,0.6-1.1C135.2,111.8,135.5,112.2,135.5,112.8z
				"/>
			<path class="st2" d="M139.7,116.4c0,0.6-0.3,1.1-0.6,1.1s-0.6-0.5-0.6-1.1s0.3-1.1,0.6-1.1C139.6,115.4,139.7,115.8,139.7,116.4z
				"/>
			<path class="st2" d="M145.8,116.4c0,0.6-0.3,1.1-0.6,1.1s-0.6-0.5-0.6-1.1s0.3-1.1,0.6-1.1C145.5,115.4,145.8,115.8,145.8,116.4z
				"/>
		</g>
		<g>
			<path class="st13" d="M60,115c0,2.5-2.4,4.6-5.4,4.6s-5.4-2-5.4-4.6c0-2.5,2.4-4.6,5.4-4.6C57.5,110.4,60,112.4,60,115z"/>
			<polygon class="st14" points="54.1,111.6 53.2,110.8 53,111.9 51.9,111.8 52.2,112.8 51.3,113.5 52.2,114.1 51.9,115.1 53,115 
				53.2,116.1 54.1,115.3 54.9,116.1 55.2,115 56.4,115.1 55.9,114.1 56.8,113.5 55.9,112.8 56.4,111.8 55.2,111.9 54.9,110.8 			
				"/>
		</g>
		<g>
			<path class="st13" d="M115.3,124.3c0,2.5-2.4,4.6-5.4,4.6s-5.4-2-5.4-4.6c0-2.5,2.4-4.6,5.4-4.6S115.3,121.8,115.3,124.3z"/>
			<polygon class="st14" points="109.5,120.8 108.6,120 108.3,121.2 107.2,121.1 107.7,122.1 106.7,122.7 107.7,123.3 107.2,124.3 
				108.3,124.3 108.6,125.4 109.5,124.6 110.3,125.4 110.6,124.3 111.8,124.3 111.3,123.3 112.3,122.7 111.3,122.1 111.8,121.1 
				110.6,121.2 110.3,120 			"/>
		</g>
		<g>
			<path class="st13" d="M77,124.2c0,2.5,2.4,4.6,5.4,4.6s5.4-2,5.4-4.6c0-2.5-2.4-4.6-5.4-4.6C79.4,119.5,77,121.6,77,124.2z"/>
			<polygon class="st14" points="82.9,120.6 83.7,119.9 84,121 85.2,120.9 84.7,121.9 85.8,122.5 84.7,123.1 85.2,124.2 84,124.1 
				83.7,125.2 82.9,124.4 82,125.2 81.8,124.1 80.7,124.2 81.1,123.1 80.1,122.5 81.1,121.9 80.7,120.9 81.8,121 82,119.9 			"/>
		</g>
		<g>
			<g>
				<path class="st2" d="M44.5,125.9c0,0-8.5,0.3-8.5-5.8c0-5.1,9.3-4.3,8.1-8.3c0,0,9.1,4.2,9,8.3
					C52.9,124.2,50.1,125.9,44.5,125.9z"/>
				<path class="st3" d="M44.3,126.3c-1.4,0-8.6-0.3-8.6-6.1c0-2.9,2.6-3.9,4.9-5c2.3-1,3.7-1.6,3.2-3.2l-0.3-0.8l0.7,0.3
					c0.4,0.2,9.3,4.4,9.2,8.5s-2.9,6.1-8.8,6.1C44.5,126.3,44.4,126.3,44.3,126.3L44.3,126.3z M44.5,112.5c0.1,1.7-1.8,2.5-3.7,3.3
					c-2.2,1-4.5,1.9-4.5,4.3c0,5.2,6.6,5.4,8,5.4h0.2c5.6,0,8.2-1.6,8.2-5.4C52.7,117,46.4,113.5,44.5,112.5L44.5,112.5z"/>
			</g>
		</g>
		<g>
			<path class="st12" d="M62.4,133.7c0,0-15.5,1.1-11.1-10.5s9.5-16,14.6-8.8C71.2,121.5,77.6,132.9,62.4,133.7z"/>
			<path class="st2" d="M57.3,121.1c0,0.6-0.3,1.1-0.6,1.1s-0.6-0.5-0.6-1.1s0.3-1.1,0.6-1.1C57.1,120,57.3,120.5,57.3,121.1z"/>
			<path class="st2" d="M61.4,116.5c0,0.6-0.3,1.1-0.6,1.1c-0.3,0-0.6-0.5-0.6-1.1s0.3-1.1,0.6-1.1S61.4,115.9,61.4,116.5z"/>
			<path class="st2" d="M66.3,120c0,0.6-0.3,1.1-0.6,1.1c-0.3,0-0.6-0.5-0.6-1.1s0.3-1.1,0.6-1.1C66,119,66.3,119.4,66.3,120z"/>
			<path class="st2" d="M62.5,123.2c0,0.6-0.3,1.1-0.6,1.1s-0.6-0.5-0.6-1.1s0.3-1.1,0.6-1.1C62.2,122.1,62.5,122.6,62.5,123.2z"/>
			<path class="st2" d="M67.9,125.5c0,0.6-0.3,1.1-0.6,1.1c-0.3,0-0.6-0.5-0.6-1.1s0.3-1.1,0.6-1.1
				C67.7,124.4,67.9,124.9,67.9,125.5z"/>
			<path class="st2" d="M55.4,126.7c0,0.6-0.3,1.1-0.6,1.1s-0.6-0.5-0.6-1.1s0.3-1.1,0.6-1.1C55.1,125.6,55.4,126.1,55.4,126.7z"/>
			<path class="st2" d="M59.6,130.2c0,0.6-0.3,1.1-0.6,1.1s-0.6-0.5-0.6-1.1c0-0.6,0.3-1.1,0.6-1.1
				C59.3,129.2,59.6,129.6,59.6,130.2z"/>
			<path class="st2" d="M65.7,130.2c0,0.6-0.3,1.1-0.6,1.1c-0.3,0-0.6-0.5-0.6-1.1c0-0.6,0.3-1.1,0.6-1.1
				C65.4,129.2,65.7,129.6,65.7,130.2z"/>
		</g>
		<g>
			<g>
				<path class="st2" d="M75.3,138c0,0-8.5,0.3-8.5-5.8c0-5.1,9.3-4.3,8.1-8.3c0,0,9.1,4.2,9,8.3C83.7,136.3,81,138,75.3,138z"/>
				<path class="st3" d="M75.1,138.3c-1.4,0-8.6-0.3-8.6-6.1c0-2.9,2.6-3.9,4.9-5c2.3-1,3.7-1.6,3.2-3.2l-0.3-0.8l0.7,0.3
					c0.4,0.2,9.3,4.4,9.2,8.5c-0.1,4.1-2.9,6.1-8.8,6.1C75.3,138.3,75.2,138.3,75.1,138.3L75.1,138.3z M75.3,124.5
					c0.1,1.7-1.8,2.5-3.7,3.3c-2.2,1-4.5,1.9-4.5,4.3c0,5.2,6.6,5.4,8,5.4h0.2c5.6,0,8.2-1.6,8.2-5.4
					C83.5,129.1,77.2,125.6,75.3,124.5L75.3,124.5z"/>
			</g>
		</g>
		<g>
			<g>
				<path class="st2" d="M133.2,126.9c0,0-8.5,0.3-8.5-5.8c0-5.1,9.3-4.3,8.1-8.3c0,0,9.1,4.2,9,8.3S138.9,126.9,133.2,126.9z"/>
				<path class="st3" d="M133,127.2c-1.4,0-8.6-0.3-8.6-6.1c0-2.9,2.6-3.9,4.9-5c2.3-1,3.7-1.6,3.2-3.2l-0.3-0.8l0.7,0.3
					c0.4,0.2,9.3,4.4,9.2,8.5s-2.9,6.1-8.8,6.1C133.2,127.2,133.2,127.2,133,127.2L133,127.2z M133.2,113.5c0.1,1.7-1.8,2.5-3.7,3.3
					c-2.2,1-4.5,1.9-4.5,4.3c0,5.2,6.6,5.4,8,5.4h0.2c5.6,0,8.2-1.6,8.2-5.4C141.5,118,135.1,114.6,133.2,113.5L133.2,113.5z"/>
			</g>
		</g>
		<g>
			<path class="st12" d="M123.2,132.8c0,0-15.5,1.1-11.1-10.5s9.5-16,14.6-8.8C131.9,120.6,138.3,132,123.2,132.8z"/>
			<path class="st2" d="M118.1,120.1c0,0.6-0.3,1.1-0.6,1.1s-0.6-0.5-0.6-1.1s0.3-1.1,0.6-1.1C117.8,119.2,118.1,119.6,118.1,120.1z
				"/>
			<path class="st2" d="M122.2,115.6c0,0.6-0.3,1.1-0.6,1.1c-0.3,0-0.6-0.5-0.6-1.1s0.3-1.1,0.6-1.1
				C121.9,114.6,122.2,115,122.2,115.6z"/>
			<path class="st2" d="M127,119.2c0,0.6-0.3,1.1-0.6,1.1s-0.6-0.5-0.6-1.1s0.3-1.1,0.6-1.1C126.8,118.1,127,118.6,127,119.2z"/>
			<path class="st2" d="M123.3,122.3c0,0.6-0.3,1.1-0.6,1.1c-0.3,0-0.6-0.5-0.6-1.1s0.3-1.1,0.6-1.1
				C123,121.3,123.3,121.8,123.3,122.3z"/>
			<path class="st2" d="M128.7,124.6c0,0.6-0.3,1.1-0.6,1.1s-0.6-0.5-0.6-1.1s0.3-1.1,0.6-1.1C128.4,123.6,128.7,124.1,128.7,124.6z
				"/>
			<path class="st2" d="M116.1,125.8c0,0.6-0.3,1.1-0.6,1.1c-0.3,0-0.6-0.5-0.6-1.1s0.3-1.1,0.6-1.1
				C115.9,124.7,116.1,125.2,116.1,125.8z"/>
			<path class="st2" d="M120.4,129.3c0,0.6-0.3,1.1-0.6,1.1c-0.3,0-0.6-0.5-0.6-1.1c0-0.6,0.3-1.1,0.6-1.1
				C120.1,128.4,120.4,128.8,120.4,129.3z"/>
			<path class="st2" d="M126.5,129.3c0,0.6-0.3,1.1-0.6,1.1s-0.6-0.5-0.6-1.1c0-0.6,0.3-1.1,0.6-1.1
				C126.2,128.4,126.5,128.8,126.5,129.3z"/>
		</g>
		<g>
			<g>
				<path class="st2" d="M108.1,137.3c0,0-8.5,0.3-8.5-5.8c0-5.1,9.3-4.3,8.1-8.3c0,0,9.1,4.2,9,8.3
					C116.6,135.6,113.8,137.3,108.1,137.3z"/>
				<path class="st3" d="M107.9,137.6c-1.4,0-8.6-0.3-8.6-6.1c0-2.9,2.6-3.9,4.9-5c2.3-1,3.7-1.6,3.2-3.2l-0.3-0.8l0.7,0.3
					c0.4,0.2,9.3,4.4,9.2,8.5c-0.1,4.1-2.9,6.1-8.8,6.1C108.1,137.6,108.1,137.6,107.9,137.6L107.9,137.6z M108.1,123.9
					c0.1,1.7-1.8,2.5-3.7,3.3c-2.2,1-4.5,1.9-4.5,4.3c0,5.2,6.6,5.4,8,5.4h0.2c5.6,0,8.2-1.6,8.2-5.4
					C116.4,128.4,110.2,124.9,108.1,123.9L108.1,123.9z"/>
			</g>
		</g>
		<g>
			<path class="st12" d="M93.2,138.9c0,0-15.5,1.1-11.1-10.5c4.3-11.5,9.5-16,14.6-8.8C101.9,126.7,108.3,138.1,93.2,138.9z"/>
			<path class="st2" d="M88.1,126.2c0,0.6-0.3,1.1-0.6,1.1c-0.3,0-0.6-0.5-0.6-1.1s0.3-1.1,0.6-1.1
				C87.9,125.2,88.1,125.6,88.1,126.2z"/>
			<path class="st2" d="M92.1,121.6c0,0.6-0.3,1.1-0.6,1.1c-0.3,0-0.6-0.5-0.6-1.1s0.3-1.1,0.6-1.1
				C91.9,120.6,92.1,121.1,92.1,121.6z"/>
			<path class="st2" d="M97,125.2c0,0.6-0.3,1.1-0.6,1.1c-0.3,0-0.6-0.5-0.6-1.1s0.3-1.1,0.6-1.1C96.7,124.2,97,124.6,97,125.2z"/>
			<path class="st2" d="M93.3,128.4c0,0.6-0.3,1.1-0.6,1.1c-0.3,0-0.6-0.5-0.6-1.1c0-0.6,0.3-1.1,0.6-1.1
				C93.1,127.3,93.3,127.8,93.3,128.4z"/>
			<path class="st2" d="M98.7,130.7c0,0.6-0.3,1.1-0.6,1.1c-0.3,0-0.6-0.5-0.6-1.1c0-0.6,0.3-1.1,0.6-1.1
				C98.4,129.6,98.7,130.1,98.7,130.7z"/>
			<path class="st2" d="M86.1,131.7c0,0.6-0.3,1.1-0.6,1.1c-0.3,0-0.6-0.5-0.6-1.1c0-0.6,0.3-1.1,0.6-1.1
				C85.9,130.8,86.1,131.3,86.1,131.7z"/>
			<path class="st2" d="M90.4,135.4c0,0.6-0.3,1.1-0.6,1.1c-0.3,0-0.6-0.5-0.6-1.1c0-0.6,0.3-1.1,0.6-1.1
				C90.2,134.3,90.4,134.8,90.4,135.4z"/>
			<path class="st2" d="M96.4,135.4c0,0.6-0.3,1.1-0.6,1.1s-0.6-0.5-0.6-1.1c0-0.6,0.3-1.1,0.6-1.1
				C96.2,134.3,96.4,134.8,96.4,135.4z"/>
		</g>
	</g>
	<g id="right">
		<path class="st24" d="M166.9,61.1c-0.1,5-3.3,9.1-7.2,9s-7-4.2-7-9.2s7.3-18.9,7.3-18.9S167,56,166.9,61.1z"/>
		<path class="st25" d="M163.6,64.5c0,2.7-1.8,4.9-3.9,4.8c-2.1,0-3.8-2.2-3.7-4.9c0-2.7,3.9-10.1,3.9-10.1S163.6,61.8,163.6,64.5z"
			/>
	</g>
	<g id="right_x5F_2">
		<path class="st24" d="M141.6,28.3c-0.1,5-3.3,9.1-7.2,9c-3.9,0-7-4.2-7-9.2s7.3-18.9,7.3-18.9S141.7,23.3,141.6,28.3z"/>
		<path class="st25" d="M138.3,31.7c0,2.7-1.8,4.9-3.9,4.8c-2.1,0-3.8-2.2-3.7-4.9c0-2.7,3.9-10.1,3.9-10.1S138.3,29,138.3,31.7z"/>
	</g>
	<g id="center">
		<path class="st24" d="M95.6,19c-0.1,5-3.3,9.1-7.2,9s-7-4.2-7-9.2S88.8,0,88.8,0S95.7,14,95.6,19z"/>
		<path class="st25" d="M92.3,22.4c0,2.7-1.8,4.9-3.9,4.8s-3.8-2.2-3.7-4.9c0-2.7,3.9-10.1,3.9-10.1S92.3,19.7,92.3,22.4z"/>
	</g>
	<g id="left_x5F_2">
		<path class="st24" d="M50.5,29.9c-0.1,5-3.3,9.1-7.2,9c-3.9,0-7-4.2-7-9.2s7.3-18.9,7.3-18.9S50.6,24.8,50.5,29.9z"/>
		<path class="st25" d="M47.2,33.3c0,2.7-1.8,4.9-3.9,4.8c-2.1,0-3.8-2.2-3.7-4.9s3.9-10.1,3.9-10.1S47.2,30.6,47.2,33.3z"/>
	</g>
	<g id="left">
		<path class="st24" d="M24.7,59.7c-0.1,5-3.3,9.1-7.2,9s-7-4.2-7-9.2s7.3-18.9,7.3-18.9S24.8,54.6,24.7,59.7z"/>
		<path class="st25" d="M21.4,63.1c0,2.7-1.8,4.9-3.9,4.8s-3.8-2.2-3.7-4.9c0-2.7,3.9-10.1,3.9-10.1S21.4,60.4,21.4,63.1z"/>
	</g>
</g>
<g id="Layer_2">
</g>
</svg>