<?xml version="1.0" encoding="utf-8"?>
<!-- Generator: Adobe Illustrator 22.1.0, SVG Export Plug-In . SVG Version: 6.00 Build 0)  -->
<svg version="1.1" id="Layer_1" xmlns="http://www.w3.org/2000/svg" xmlns:xlink="http://www.w3.org/1999/xlink" x="0px" y="0px"
	 viewBox="0 0 153.9 439.6" style="enable-background:new 0 0 153.9 439.6;" xml:space="preserve">
<style type="text/css">
	.st0{fill:url(#SVGID_1_);}
	.st1{fill:url(#SVGID_2_);}
	.st2{fill:url(#SVGID_3_);}
	.st3{fill:url(#SVGID_4_);}
	.st4{fill:#FFFFFF;}
	.st5{fill:url(#SVGID_5_);}
</style>
<linearGradient id="SVGID_1_" gradientUnits="userSpaceOnUse" x1="2.9631" y1="52.038" x2="150.9189" y2="52.038">
	<stop  offset="0" style="stop-color:#EEF3F1"/>
	<stop  offset="0.5225" style="stop-color:#E5EFEE"/>
	<stop  offset="1" style="stop-color:#CEE1DE"/>
</linearGradient>
<path class="st0" d="M101.8,47.2V23.4H52.1v23.8c0,0,7.4,0-16,33.4h81.8C94.4,47.2,101.8,47.2,101.8,47.2z"/>
<linearGradient id="SVGID_2_" gradientUnits="userSpaceOnUse" x1="2.963" y1="93.4994" x2="150.9193" y2="93.4994">
	<stop  offset="0" style="stop-color:#51B848"/>
	<stop  offset="0.5225" style="stop-color:#2F8F44"/>
	<stop  offset="1" style="stop-color:#186734"/>
</linearGradient>
<path class="st1" d="M118,81c-0.1-0.1-0.2-0.2-0.2-0.3H36.1c-0.1,0.1-0.2,0.2-0.2,0.3c-6.6,9.3-11.9,17.6-16.1,25.4h114.5
	C129.9,98.6,124.6,90.3,118,81z"/>
<linearGradient id="SVGID_3_" gradientUnits="userSpaceOnUse" x1="2.9631" y1="160.5402" x2="150.9189" y2="160.5402">
	<stop  offset="0" style="stop-color:#6FBE47"/>
	<stop  offset="0.5225" style="stop-color:#83C447"/>
	<stop  offset="1" style="stop-color:#4CA346"/>
</linearGradient>
<path class="st2" d="M149.1,168.2c0-24.4-3.8-41.5-14.9-61.9H19.7C8.6,126.7,4.8,143.9,4.8,168.2c0,18.2,5.7,33.5,11,46.5h122.4
	C143.4,201.7,149.1,186.4,149.1,168.2z"/>
<linearGradient id="SVGID_4_" gradientUnits="userSpaceOnUse" x1="2.9631" y1="322.9174" x2="150.919" y2="322.9174">
	<stop  offset="0" style="stop-color:#51B848"/>
	<stop  offset="0.5225" style="stop-color:#2F8F44"/>
	<stop  offset="1" style="stop-color:#186734"/>
</linearGradient>
<path class="st3" d="M3,324.9c0,33.7,11,93.2,21.9,101.2c11,7.9,16.4,6,29.2-2c12.8-7.9,3.7-2,21.9,2h1.9c18.3-4,9.1-9.9,21.9-2
	c12.8,7.9,18.3,9.9,29.2,2c11-7.9,21.9-67.4,21.9-101.2s-21.5-63.5-21.5-81.3c0-8.2,4.2-17.7,8.7-28.9H15.8
	c4.5,11.2,8.7,20.7,8.7,28.9C24.4,261.5,3,291.2,3,324.9"/>
<path class="st4" d="M42.8,276.5c0,0-0.3,0.4-0.8,1.3c-0.2,0.4-0.6,0.9-0.9,1.5c-0.3,0.6-0.7,1.3-1.1,2.1c-0.4,0.8-0.8,1.7-1.2,2.7
	c-0.4,1-0.9,2-1.3,3.2c-0.9,2.3-1.6,5-2.4,7.9c-1.4,5.9-2.3,12.9-2.4,20.4c0,0.9,0,1.9,0,2.8c0,1,0,1.9,0.1,2.9l0.1,1.3l0.1,1.5
	c0.1,1,0.1,2,0.2,3c0.1,2.1,0.4,4,0.6,5.9c0.2,1.9,0.5,4,0.8,5.9c0.3,2,0.6,4,1.1,6c0.4,2,0.8,3.9,1.3,5.9c0.4,1.9,1,3.9,1.4,5.8
	c0.5,1.9,0.8,3.8,1.2,5.7c0.7,3.8,1.2,7.5,1.6,11c0.4,3.6,0.6,6.9,0.8,10.1c0.3,6.3,0.2,11.6-0.1,15.3c-0.1,1.9-0.3,3.3-0.4,4.4
	c-0.1,1-0.2,1.6-0.2,1.6l-1.3,0.2c0,0-0.3-0.5-0.8-1.4c-0.5-0.9-1.2-2.2-2-3.9c-1.6-3.4-3.6-8.3-5.6-14.2c-1-3-2-6.2-2.9-9.7
	c-1-3.4-1.8-7.1-2.5-11c-0.3-1.9-0.6-3.9-0.8-5.9c-0.2-2-0.4-4.1-0.5-6.2c-0.1-2.1-0.3-4.2-0.4-6.3c-0.1-2.1-0.3-4.2-0.3-6.4
	c-0.1-2.1-0.2-4.2-0.2-6.4c0-2.1-0.1-4.4,0.1-6.4c0-1,0.1-2,0.1-3l0.1-1.5c0-0.2,0-0.1,0-0.1l0,0l0-0.1l0-0.2l0-0.4l0.1-0.8
	c0.1-1,0.2-2.1,0.3-3.1c0.1-1,0.2-2,0.4-3c0.6-4,1.3-7.8,2.3-11.4c1-3.6,2.1-6.9,3.2-9.9c1.2-3,2.5-5.6,3.8-7.9
	c0.6-1.1,1.3-2.2,1.9-3.1c0.6-0.9,1.2-1.8,1.8-2.5c0.6-0.7,1.1-1.4,1.6-2c0.4-0.6,0.9-1,1.2-1.4c0.7-0.7,1-1.1,1-1.1L42.8,276.5z"/>
<path class="st4" d="M41.1,95.2c0,0,0.1-0.5,0.3-1.4c0.1-0.5,0.2-1,0.4-1.6c0.2-0.6,0.3-1.3,0.5-2.1c0.2-0.7,0.4-1.6,0.6-2.4
	c0.2-0.9,0.5-1.7,0.8-2.7c0.3-0.9,0.6-1.9,0.9-2.8c0.3-0.9,0.7-1.9,1-2.8c0.3-0.9,0.6-2,0.8-3c0.2-1,0.5-2,0.9-2.8
	c0.5-0.8,1.1-1.5,1.8-2c0.7-0.6,1.4-1,2.2-1.4c0.7-0.4,1.5-0.7,2.3-1c0.7-0.3,1.5-0.4,2.1-0.5c0.3-0.1,0.6-0.1,0.9-0.1
	c0.3,0,0.5-0.1,0.7-0.1c0.4,0,0.6,0,0.6,0l1.1,0.7c0,0,0.1,0.2,0.2,0.6c0.1,0.2,0.1,0.4,0.2,0.6c0.1,0.2,0.2,0.5,0.3,0.8
	c0.2,0.6,0.3,1.3,0.4,2.1c0.1,0.8,0.2,1.6,0.1,2.5c0,0.9-0.1,1.7-0.3,2.6c-0.2,0.9-0.5,1.7-1,2.5c-0.5,0.8-1.3,1.4-2.1,2
	c-0.8,0.6-1.6,1.3-2.3,2c-0.7,0.7-1.4,1.4-2.1,2.1c-0.7,0.7-1.4,1.4-2.1,2c-0.7,0.6-1.4,1.3-2.1,1.8c-0.7,0.6-1.3,1.1-1.9,1.6
	c-0.6,0.5-1.1,0.9-1.6,1.4c-0.5,0.4-0.9,0.7-1.3,1c-0.7,0.6-1.1,0.9-1.1,0.9L41.1,95.2z"/>
<linearGradient id="SVGID_5_" gradientUnits="userSpaceOnUse" x1="46.9253" y1="26.3752" x2="106.9567" y2="26.3752">
	<stop  offset="0" style="stop-color:#6FBE47"/>
	<stop  offset="0.5225" style="stop-color:#83C447"/>
	<stop  offset="1" style="stop-color:#4CA346"/>
</linearGradient>
<rect x="46.9" y="8.5" class="st5" width="60" height="35.8"/>
<g>
	<g>
		<path class="st4" d="M22.2,154v-27.6h15.1v5.3h-8.8v6.2h8.2v5.1h-8.2v11H22.2z"/>
		<path class="st4" d="M55.5,141.1c1.9,0.8,2.9,2.5,3.5,5.2c0.7,3,1.5,6.7,2,7.7h-6.5c-0.4-0.8-1.1-3.3-1.7-6.5
			c-0.6-3.4-1.6-4.3-3.7-4.3h-1.2V154h-6.3v-27.3c1.9-0.3,4.6-0.6,7.5-0.6c3.7,0,10.9,0.4,10.9,8c0,3.3-2,5.8-4.6,6.8V141.1z
			 M49.6,138.6c2.6,0,4.2-1.6,4.2-3.9c0-3.1-2.3-3.8-3.8-3.8c-1,0-1.7,0.1-2,0.2v7.5H49.6z"/>
		<path class="st4" d="M84.3,142.4c0,7.9-3.6,12-10.2,12c-6.7,0-9.9-4.1-9.9-12.1v-15.9h6.3v16.7c0,4.3,1.4,6.1,3.8,6.1
			c2.4,0,3.8-1.7,3.8-6.1v-16.7h6.3V142.4z"/>
		<path class="st4" d="M89.3,126.4h6.3V154h-6.3V126.4z"/>
		<path class="st4" d="M117.5,131.9h-6.3V154h-6.3v-22.1h-6.3v-5.5h18.9V131.9z"/>
		<path class="st4" d="M134.6,132.4c-1-0.5-2.6-1.1-4.9-1.1c-2.4,0-3.6,1.2-3.6,2.5c0,1.5,1.1,2.3,4.5,3.8c4.4,2,6.2,4.7,6.2,8.1
			c0,5-3.8,8.6-10.5,8.6c-2.8,0-5.5-0.7-6.8-1.4l1.1-5.3c1.5,0.8,3.8,1.4,6,1.4c2.6,0,3.9-1.1,3.9-2.8c0-1.7-1.3-2.6-4.1-3.9
			c-4.4-2-6.6-4.7-6.6-8c0-4.7,3.6-8.4,10-8.4c2.6,0,4.7,0.6,6,1.2L134.6,132.4z"/>
	</g>
	<g>
		<path class="st4" d="M48.6,160.4c-1-0.5-2.6-1.1-4.9-1.1c-2.4,0-3.6,1.2-3.6,2.5c0,1.5,1.1,2.3,4.5,3.8c4.4,2,6.2,4.7,6.2,8.1
			c0,5-3.8,8.6-10.5,8.6c-2.8,0-5.5-0.7-6.8-1.4l1.1-5.3c1.5,0.8,3.8,1.4,6,1.4c2.6,0,3.9-1.1,3.9-2.8c0-1.7-1.3-2.6-4.1-3.9
			c-4.4-2-6.6-4.7-6.6-8c0-4.7,3.6-8.4,10-8.4c2.6,0,4.7,0.6,6,1.2L48.6,160.4z"/>
		<path class="st4" d="M76.3,167.8c0,9.6-4.7,14.6-11.7,14.6c-7.6,0-11.3-6.6-11.3-14.2c0-7.8,4.3-14.3,11.7-14.3
			C73,154,76.3,161.1,76.3,167.8z M59.9,168.1c0,5.3,1.8,9.1,4.9,9.1c3.2,0,4.8-3.8,4.8-9.2c0-4.8-1.6-8.9-4.8-8.9
			C61.4,159.2,59.9,163.4,59.9,168.1z"/>
		<path class="st4" d="M80,154.8c1.9-0.3,4.5-0.6,7.3-0.6c4.6,0,7.6,0.9,9.9,2.7c2.7,2.2,4.2,5.7,4.2,10.8c0,5.9-2,9.5-4.3,11.5
			c-2.5,2.1-6.2,3.1-11,3.1c-2.7,0-4.7-0.2-6-0.4V154.8z M86.3,177.2c0.4,0.1,1,0.1,1.5,0.1c4.1,0,7-2.7,7-9.5
			c0-5.8-2.6-8.6-6.6-8.6c-0.9,0-1.5,0.1-1.9,0.2V177.2z"/>
		<path class="st4" d="M125.4,182h-6.5l-1.6-6.4h-6.4l-1.5,6.4h-6.4l7.3-27.6h8L125.4,182z M116.6,170.8l-1.2-5.5
			c-0.4-1.6-0.8-4.1-1.2-5.8h-0.1c-0.4,1.7-0.8,4.2-1.1,5.8l-1.3,5.5H116.6z"/>
	</g>
</g>
<path class="st4" d="M128.7,201.8c0,3.5-2.8,6.3-6.3,6.3c-3.5,0-6.3-2.8-6.3-6.3c0-3.5,2.8-6.3,6.3-6.3
	C125.9,195.5,128.7,198.3,128.7,201.8z"/>
<path class="st4" d="M140.8,186.2c0,2.5-2,4.6-4.6,4.6c-2.5,0-4.6-2-4.6-4.6c0-2.5,2-4.6,4.6-4.6
	C138.8,181.6,140.8,183.7,140.8,186.2z"/>
<path class="st4" d="M144,169.2c0,1.7-1.4,3.1-3.1,3.1c-1.7,0-3.1-1.4-3.1-3.1s1.4-3.1,3.1-3.1C142.6,166.1,144,167.5,144,169.2z"/>
</svg>
