<?xml version="1.0" encoding="utf-8"?>
<!-- Generator: Adobe Illustrator 22.1.0, SVG Export Plug-In . SVG Version: 6.00 Build 0)  -->
<svg version="1.1" id="Layer_1" xmlns="http://www.w3.org/2000/svg" xmlns:xlink="http://www.w3.org/1999/xlink" x="0px" y="0px"
	 viewBox="0 0 153.9 439.6" style="enable-background:new 0 0 153.9 439.6;" xml:space="preserve">
<style type="text/css">
	.st0{fill:url(#SVGID_1_);}
	.st1{fill:url(#SVGID_2_);}
	.st2{fill:#FFFFFF;}
	.st3{fill:url(#SVGID_3_);}
	.st4{fill:url(#SVGID_4_);}
	.st5{fill:#F9E65D;}
	.st6{fill:url(#SVGID_5_);}
	.st7{fill:url(#SVGID_6_);}
	.st8{fill:#D27828;}
	.st9{fill:url(#SVGID_7_);}
	.st10{fill:#EFC652;}
	.st11{fill:url(#SVGID_8_);}
	.st12{fill:#669A41;}
	.st13{fill:#C0DB7D;}
	.st14{fill:#F08022;}
</style>
<linearGradient id="SVGID_1_" gradientUnits="userSpaceOnUse" x1="2.9631" y1="52.038" x2="150.9189" y2="52.038">
	<stop  offset="0" style="stop-color:#EEF3F1"/>
	<stop  offset="0.5225" style="stop-color:#E5EFEE"/>
	<stop  offset="1" style="stop-color:#CEE1DE"/>
</linearGradient>
<path class="st0" d="M101.8,47.2V23.4H52.1v23.8c0,0,7.4,0-16,33.4h81.8C94.4,47.2,101.8,47.2,101.8,47.2z"/>
<linearGradient id="SVGID_2_" gradientUnits="userSpaceOnUse" x1="2.963" y1="93.4994" x2="150.9193" y2="93.4994">
	<stop  offset="0" style="stop-color:#51B848"/>
	<stop  offset="0.5225" style="stop-color:#2F8F44"/>
	<stop  offset="1" style="stop-color:#186734"/>
</linearGradient>
<path class="st1" d="M118,81c-0.1-0.1-0.2-0.2-0.2-0.3H36.1c-0.1,0.1-0.2,0.2-0.2,0.3c-6.6,9.3-11.9,17.6-16.1,25.4h114.5
	C129.9,98.6,124.6,90.3,118,81z"/>
<path class="st2" d="M42.8,276.5c0,0-0.3,0.4-0.8,1.3c-0.2,0.4-0.6,0.9-0.9,1.5c-0.3,0.6-0.7,1.3-1.1,2.1c-0.4,0.8-0.8,1.7-1.2,2.7
	c-0.4,1-0.9,2-1.3,3.2c-0.9,2.3-1.6,5-2.4,7.9c-1.4,5.9-2.3,12.9-2.4,20.4c0,0.9,0,1.9,0,2.8c0,1,0,1.9,0.1,2.9l0.1,1.3l0.1,1.5
	c0.1,1,0.1,2,0.2,3c0.1,2.1,0.4,4,0.6,5.9c0.2,1.9,0.5,4,0.8,5.9c0.3,2,0.6,4,1.1,6c0.4,2,0.8,3.9,1.3,5.9c0.4,1.9,1,3.9,1.4,5.8
	c0.5,1.9,0.8,3.8,1.2,5.7c0.7,3.8,1.2,7.5,1.6,11c0.4,3.6,0.6,6.9,0.8,10.1c0.3,6.3,0.2,11.6-0.1,15.3c-0.1,1.9-0.3,3.3-0.4,4.4
	c-0.1,1-0.2,1.6-0.2,1.6l-1.3,0.2c0,0-0.3-0.5-0.8-1.4c-0.5-0.9-1.2-2.2-2-3.9c-1.6-3.4-3.6-8.3-5.6-14.2c-1-3-2-6.2-2.9-9.7
	c-1-3.4-1.8-7.1-2.5-11c-0.3-1.9-0.6-3.9-0.8-5.9c-0.2-2-0.4-4.1-0.5-6.2c-0.1-2.1-0.3-4.2-0.4-6.3c-0.1-2.1-0.3-4.2-0.3-6.4
	c-0.1-2.1-0.2-4.2-0.2-6.4c0-2.1-0.1-4.4,0.1-6.4c0-1,0.1-2,0.1-3l0.1-1.5c0-0.2,0-0.1,0-0.1l0,0l0-0.1l0-0.2l0-0.4l0.1-0.8
	c0.1-1,0.2-2.1,0.3-3.1c0.1-1,0.2-2,0.4-3c0.6-4,1.3-7.8,2.3-11.4c1-3.6,2.1-6.9,3.2-9.9c1.2-3,2.5-5.6,3.8-7.9
	c0.6-1.1,1.3-2.2,1.9-3.1c0.6-0.9,1.2-1.8,1.8-2.5c0.6-0.7,1.1-1.4,1.6-2c0.4-0.6,0.9-1,1.2-1.4c0.7-0.7,1-1.1,1-1.1L42.8,276.5z"/>
<path class="st2" d="M41.1,95.2c0,0,0.1-0.5,0.3-1.4c0.1-0.5,0.2-1,0.4-1.6c0.2-0.6,0.3-1.3,0.5-2.1c0.2-0.7,0.4-1.6,0.6-2.4
	c0.2-0.9,0.5-1.7,0.8-2.7c0.3-0.9,0.6-1.9,0.9-2.8c0.3-0.9,0.7-1.9,1-2.8c0.3-0.9,0.6-2,0.8-3c0.2-1,0.5-2,0.9-2.8
	c0.5-0.8,1.1-1.5,1.8-2c0.7-0.6,1.4-1,2.2-1.4c0.7-0.4,1.5-0.7,2.3-1c0.7-0.3,1.5-0.4,2.1-0.5c0.3-0.1,0.6-0.1,0.9-0.1
	c0.3,0,0.5-0.1,0.7-0.1c0.4,0,0.6,0,0.6,0l1.1,0.7c0,0,0.1,0.2,0.2,0.6c0.1,0.2,0.1,0.4,0.2,0.6c0.1,0.2,0.2,0.5,0.3,0.8
	c0.2,0.6,0.3,1.3,0.4,2.1c0.1,0.8,0.2,1.6,0.1,2.5c0,0.9-0.1,1.7-0.3,2.6c-0.2,0.9-0.5,1.7-1,2.5c-0.5,0.8-1.3,1.4-2.1,2
	c-0.8,0.6-1.6,1.3-2.3,2c-0.7,0.7-1.4,1.4-2.1,2.1c-0.7,0.7-1.4,1.4-2.1,2c-0.7,0.6-1.4,1.3-2.1,1.8c-0.7,0.6-1.3,1.1-1.9,1.6
	c-0.6,0.5-1.1,0.9-1.6,1.4c-0.5,0.4-0.9,0.7-1.3,1c-0.7,0.6-1.1,0.9-1.1,0.9L41.1,95.2z"/>
<linearGradient id="SVGID_3_" gradientUnits="userSpaceOnUse" x1="46.9253" y1="26.3752" x2="106.9567" y2="26.3752">
	<stop  offset="0" style="stop-color:#6FBE47"/>
	<stop  offset="0.5225" style="stop-color:#83C447"/>
	<stop  offset="1" style="stop-color:#4CA346"/>
</linearGradient>
<rect x="46.9" y="8.5" class="st3" width="60" height="35.8"/>
<g>
	<g>
		<path class="st2" d="M22.2,154v-27.6h15.1v5.3h-8.8v6.2h8.2v5.1h-8.2v11H22.2z"/>
		<path class="st2" d="M55.5,141.1c1.9,0.8,2.9,2.5,3.5,5.2c0.7,3,1.5,6.7,2,7.7h-6.5c-0.4-0.8-1.1-3.3-1.7-6.5
			c-0.6-3.4-1.6-4.3-3.7-4.3h-1.2V154h-6.3v-27.3c1.9-0.3,4.6-0.6,7.5-0.6c3.7,0,10.9,0.4,10.9,8c0,3.3-2,5.8-4.6,6.8V141.1z
			 M49.6,138.6c2.6,0,4.2-1.6,4.2-3.9c0-3.1-2.3-3.8-3.8-3.8c-1,0-1.7,0.1-2,0.2v7.5H49.6z"/>
		<path class="st2" d="M84.3,142.4c0,7.9-3.6,12-10.2,12c-6.7,0-9.9-4.1-9.9-12.1v-15.9h6.3v16.7c0,4.3,1.4,6.1,3.8,6.1
			c2.4,0,3.8-1.7,3.8-6.1v-16.7h6.3V142.4z"/>
		<path class="st2" d="M89.3,126.4h6.3V154h-6.3V126.4z"/>
		<path class="st2" d="M117.5,131.9h-6.3V154h-6.3v-22.1h-6.3v-5.5h18.9V131.9z"/>
		<path class="st2" d="M134.6,132.4c-1-0.5-2.6-1.1-4.9-1.1c-2.4,0-3.6,1.2-3.6,2.5c0,1.5,1.1,2.3,4.5,3.8c4.4,2,6.2,4.7,6.2,8.1
			c0,5-3.8,8.6-10.5,8.6c-2.8,0-5.5-0.7-6.8-1.4l1.1-5.3c1.5,0.8,3.8,1.4,6,1.4c2.6,0,3.9-1.1,3.9-2.8c0-1.7-1.3-2.6-4.1-3.9
			c-4.4-2-6.6-4.7-6.6-8c0-4.7,3.6-8.4,10-8.4c2.6,0,4.7,0.6,6,1.2L134.6,132.4z"/>
	</g>
	<g>
		<path class="st2" d="M48.6,160.4c-1-0.5-2.6-1.1-4.9-1.1c-2.4,0-3.6,1.2-3.6,2.5c0,1.5,1.1,2.3,4.5,3.8c4.4,2,6.2,4.7,6.2,8.1
			c0,5-3.8,8.6-10.5,8.6c-2.8,0-5.5-0.7-6.8-1.4l1.1-5.3c1.5,0.8,3.8,1.4,6,1.4c2.6,0,3.9-1.1,3.9-2.8c0-1.7-1.3-2.6-4.1-3.9
			c-4.4-2-6.6-4.7-6.6-8c0-4.7,3.6-8.4,10-8.4c2.6,0,4.7,0.6,6,1.2L48.6,160.4z"/>
		<path class="st2" d="M76.3,167.8c0,9.6-4.7,14.6-11.7,14.6c-7.6,0-11.3-6.6-11.3-14.2c0-7.8,4.3-14.3,11.7-14.3
			C73,154,76.3,161.1,76.3,167.8z M59.9,168.1c0,5.3,1.8,9.1,4.9,9.1c3.2,0,4.8-3.8,4.8-9.2c0-4.8-1.6-8.9-4.8-8.9
			C61.4,159.2,59.9,163.4,59.9,168.1z"/>
		<path class="st2" d="M80,154.8c1.9-0.3,4.5-0.6,7.3-0.6c4.6,0,7.6,0.9,9.9,2.7c2.7,2.2,4.2,5.7,4.2,10.8c0,5.9-2,9.5-4.3,11.5
			c-2.5,2.1-6.2,3.1-11,3.1c-2.7,0-4.7-0.2-6-0.4V154.8z M86.3,177.2c0.4,0.1,1,0.1,1.5,0.1c4.1,0,7-2.7,7-9.5
			c0-5.8-2.6-8.6-6.6-8.6c-0.9,0-1.5,0.1-1.9,0.2V177.2z"/>
		<path class="st2" d="M125.4,182h-6.5l-1.6-6.4h-6.4l-1.5,6.4h-6.4l7.3-27.6h8L125.4,182z M116.6,170.8l-1.2-5.5
			c-0.4-1.6-0.8-4.1-1.2-5.8h-0.1c-0.4,1.7-0.8,4.2-1.1,5.8l-1.3,5.5H116.6z"/>
	</g>
</g>
<path class="st2" d="M128.7,201.8c0,3.5-2.8,6.3-6.3,6.3c-3.5,0-6.3-2.8-6.3-6.3c0-3.5,2.8-6.3,6.3-6.3
	C125.9,195.5,128.7,198.3,128.7,201.8z"/>
<path class="st2" d="M140.8,186.2c0,2.5-2,4.6-4.6,4.6c-2.5,0-4.6-2-4.6-4.6c0-2.5,2-4.6,4.6-4.6
	C138.8,181.6,140.8,183.7,140.8,186.2z"/>
<path class="st2" d="M144,169.2c0,1.7-1.4,3.1-3.1,3.1c-1.7,0-3.1-1.4-3.1-3.1s1.4-3.1,3.1-3.1C142.6,166.1,144,167.5,144,169.2z"/>
<g>
	<g>
		<g>
			<g>
				<linearGradient id="SVGID_4_" gradientUnits="userSpaceOnUse" x1="10.7453" y1="232.1109" x2="143.5931" y2="232.1109">
					<stop  offset="0" style="stop-color:#FEDB46"/>
					<stop  offset="0.5225" style="stop-color:#F7C523"/>
					<stop  offset="1" style="stop-color:#F6B519"/>
				</linearGradient>
				<path class="st4" d="M142.3,110.6c2-5.2,1-11.4-3-15.7l-35.9-38.2v-28H50.9v28L15.1,94.9c-4,4.2-5,10.4-3,15.7
					c-0.8,4.5-1.3,9.5-1.3,14.8v274.9c0,19.5,6.3,35.3,14.2,35.3h104.5c7.8,0,14.2-15.8,14.2-35.3V125.4
					C143.6,120.1,143.1,115.1,142.3,110.6z"/>
				<path class="st5" d="M33.5,99c0,0,1.4-0.1,3.7-0.2c2.4-0.1,5.7-0.3,9.8-0.4c2-0.1,4.2-0.2,6.5-0.3c2.3-0.1,4.8-0.2,7.3-0.3
					c5.1-0.2,10.5-0.3,15.9-0.5c2.7-0.1,5.4-0.2,8.1-0.3c2.7-0.1,5.3-0.2,7.8-0.2c2.5,0,5,0.1,7.3,0.3c2.3,0.1,4.5,0.3,6.5,0.5
					c2,0.2,3.9,0.4,5.5,0.7c1.6,0.2,3.1,0.5,4.3,0.7c1.2,0.2,2.1,0.4,2.7,0.6c0.6,0.1,1,0.2,1,0.2l0,0.6c0,0-0.3,0.1-1,0.2
					c-0.6,0.1-1.6,0.3-2.7,0.5c-1.2,0.2-2.6,0.4-4.3,0.6c-1.6,0.2-3.5,0.4-5.5,0.6c-2,0.2-4.2,0.3-6.5,0.4c-2.3,0.1-4.8,0.2-7.3,0.1
					c-2.5,0-5.1-0.2-7.8-0.4c-2.7-0.2-5.4-0.3-8.1-0.5c-5.4-0.2-10.8-0.5-15.9-0.8c-2.5-0.1-5-0.3-7.3-0.4c-2.3-0.1-4.5-0.3-6.5-0.4
					c-4.1-0.3-7.4-0.4-9.8-0.6c-2.4-0.2-3.7-0.3-3.7-0.3L33.5,99z"/>
				<path class="st5" d="M32.7,88.7c0,0,1.2-1.5,3-3.6c0.9-1.1,2-2.3,3.2-3.6c1.2-1.3,2.5-2.7,3.7-4.1c0.6-0.7,1.3-1.4,1.8-2.1
					c0.6-0.7,1.2-1.4,1.8-2c0.7-0.6,1.4-1.1,2.1-1.5c0.7-0.4,1.4-0.8,2.1-1.1c0.7-0.3,1.3-0.6,1.9-0.8c0.6-0.2,1.1-0.4,1.6-0.5
					c0.5-0.1,0.8-0.2,1.1-0.2c0.3,0,0.4-0.1,0.4-0.1l0.4,0.4c0,0,0,0.1-0.1,0.4c-0.1,0.2-0.2,0.6-0.4,1c-0.2,0.4-0.4,0.9-0.7,1.5
					c-0.3,0.5-0.6,1.1-1,1.7c-0.4,0.6-0.9,1.2-1.4,1.8c-0.5,0.6-1.1,1.2-1.8,1.8c-0.7,0.6-1.5,1.1-2.3,1.5c-0.8,0.5-1.6,1-2.4,1.5
					c-1.6,1.1-3.1,2.2-4.6,3.1c-1.5,1-2.9,1.9-4.1,2.7c-2.4,1.5-4.1,2.5-4.1,2.5L32.7,88.7z"/>
			</g>
			<linearGradient id="SVGID_5_" gradientUnits="userSpaceOnUse" x1="11.1241" y1="274.9161" x2="143.972" y2="274.9161">
				<stop  offset="0" style="stop-color:#F8ECA6"/>
				<stop  offset="5.253604e-02" style="stop-color:#F7E991"/>
				<stop  offset="0.1207" style="stop-color:#F5E57B"/>
				<stop  offset="0.1943" style="stop-color:#F5E267"/>
				<stop  offset="0.2748" style="stop-color:#F4E057"/>
				<stop  offset="0.3675" style="stop-color:#F4DF4D"/>
				<stop  offset="0.5" style="stop-color:#F4DF4A"/>
				<stop  offset="0.7235" style="stop-color:#F4DF4F"/>
				<stop  offset="0.9702" style="stop-color:#F7E15D"/>
				<stop  offset="1" style="stop-color:#F7E15F"/>
			</linearGradient>
			<path class="st6" d="M144,126H11.1c0,0.4,0,0.8,0,1.2v225.3v9.8v17.5v15.7v6.6c0,8.1,1.1,15.6,3,21.6H141c1.9-6,3-13.5,3-21.6
				v-6.6v-15.7v-17.5v-9.8v-25.3v-11.1v-12.4v-7V127.3C144,126.9,144,126.5,144,126z"/>
		</g>
		<linearGradient id="SVGID_6_" gradientUnits="userSpaceOnUse" x1="46.481" y1="28.726" x2="108.2363" y2="28.726">
			<stop  offset="1.123600e-02" style="stop-color:#F8F6C2"/>
			<stop  offset="0.5" style="stop-color:#F8F296"/>
			<stop  offset="1" style="stop-color:#F3E858"/>
		</linearGradient>
		<rect x="46.5" y="8.5" class="st7" width="61.8" height="40.5"/>
	</g>
	<path class="st8" d="M79.5,346.5c0,1.2-1,2.2-2.2,2.2c-1.2,0-2.2-1-2.2-2.2c0-1.2,1-2.2,2.2-2.2C78.5,344.2,79.5,345.2,79.5,346.5z
		"/>
	<path class="st8" d="M79.5,333.7c0,1.2-1,2.2-2.2,2.2c-1.2,0-2.2-1-2.2-2.2c0-1.2,1-2.2,2.2-2.2C78.5,331.5,79.5,332.5,79.5,333.7z
		"/>
	<path class="st8" d="M79.5,343.7c0,1.2-1,2.2-2.2,2.2c-1.2,0-2.2-1-2.2-2.2c0-1.2,1-2.2,2.2-2.2C78.5,341.5,79.5,342.5,79.5,343.7z
		"/>
	<path class="st8" d="M79.5,345.9c0,1.2-1,2.2-2.2,2.2c-1.2,0-2.2-1-2.2-2.2c0-1.2,1-2.2,2.2-2.2C78.5,343.7,79.5,344.7,79.5,345.9z
		"/>
	<path class="st8" d="M79.5,330.9c0,1.2-1,2.2-2.2,2.2c-1.2,0-2.2-1-2.2-2.2c0-1.2,1-2.2,2.2-2.2C78.5,328.7,79.5,329.7,79.5,330.9z
		"/>
	<g>
		<g>
			<linearGradient id="SVGID_7_" gradientUnits="userSpaceOnUse" x1="77.3586" y1="369.5228" x2="77.3586" y2="253.8682">
				<stop  offset="0" style="stop-color:#E48525"/>
				<stop  offset="0.4775" style="stop-color:#E99E23"/>
				<stop  offset="1" style="stop-color:#EFB33A"/>
			</linearGradient>
			<ellipse class="st9" cx="77.4" cy="311.7" rx="56.1" ry="57.8"/>
			<path class="st10" d="M42.2,348.6c0,0-0.5-0.4-1.3-1.2c-0.2-0.2-0.4-0.4-0.7-0.6c-0.2-0.3-0.5-0.5-0.8-0.8
				c-0.3-0.3-0.6-0.6-0.9-1c-0.3-0.3-0.6-0.7-0.9-1.1c-0.3-0.4-0.6-0.8-0.9-1.2c-0.3-0.4-0.6-0.9-0.9-1.4c-0.2-0.2-0.3-0.5-0.5-0.7
				c-0.2-0.3-0.3-0.5-0.5-0.8c-0.3-0.5-0.6-1-0.9-1.6c-0.6-1.1-1.2-2.3-1.7-3.5c-0.6-1.2-1-2.5-1.4-3.8c-0.4-1.3-0.9-2.6-1.2-3.9
				c-0.2-0.7-0.4-1.3-0.5-2c-0.1-0.7-0.2-1.3-0.3-2c0-0.7,0-1.3,0-1.9c0-0.3,0-0.6,0-0.9c0-0.3,0.1-0.6,0.1-0.9
				c0.1-0.6,0.2-1.2,0.3-1.7c0.1-0.6,0.3-1.1,0.4-1.6c0.1-0.5,0.3-1,0.5-1.4c0.2-0.4,0.4-0.9,0.6-1.3c0.2-0.4,0.4-0.7,0.5-1.1
				c0.2-0.3,0.4-0.6,0.6-0.9c0.4-0.5,0.6-0.9,0.9-1.2c0.2-0.3,0.3-0.4,0.3-0.4l0.7,0.2c0,0,0.1,0.2,0.2,0.5c0.1,0.3,0.2,0.8,0.4,1.4
				c0.1,0.3,0.1,0.6,0.2,1c0.1,0.3,0.2,0.7,0.2,1.1c0.1,0.8,0.3,1.6,0.5,2.6c0.1,0.5,0.1,0.9,0.2,1.4c0.1,0.5,0.2,1,0.2,1.5
				c0.1,0.5,0.1,1,0.2,1.6c0.1,0.5,0.1,1.1,0.1,1.6c0.1,1.1,0,2.3,0,3.5c0,1.2,0.1,2.4,0.2,3.6c0.2,1.2,0.4,2.4,0.7,3.6
				c0.2,1.2,0.6,2.3,0.9,3.4c0.2,0.6,0.3,1.1,0.5,1.6c0.2,0.5,0.3,1.1,0.5,1.6c0.2,0.5,0.4,1,0.6,1.5c0.2,0.5,0.4,0.9,0.6,1.3
				c0.2,0.4,0.4,0.8,0.6,1.2c0.2,0.4,0.4,0.7,0.5,1.1c0.2,0.3,0.3,0.7,0.5,1c0.2,0.3,0.3,0.6,0.5,0.8c0.6,1,0.9,1.5,0.9,1.5
				L42.2,348.6z"/>
			<g>
				
					<radialGradient id="SVGID_8_" cx="131.6077" cy="259.6642" r="13.2992" gradientTransform="matrix(0.933 0 0 0.9611 -45.4379 19.1996)" gradientUnits="userSpaceOnUse">
					<stop  offset="0" style="stop-color:#E48525"/>
					<stop  offset="0.4775" style="stop-color:#E99E23"/>
					<stop  offset="1" style="stop-color:#EFB33A"/>
				</radialGradient>
				<ellipse class="st11" cx="77.4" cy="268.8" rx="14.1" ry="10.7"/>
				<g>
					<ellipse class="st12" cx="77.4" cy="267.3" rx="6.7" ry="4.8"/>
					<ellipse class="st13" cx="77.4" cy="266.3" rx="5.4" ry="3.9"/>
				</g>
			</g>
		</g>
		<g>
			<path class="st14" d="M37.4,195.2c0,11.9-4,18.1-10,18.1c-6.6,0-9.8-8.2-9.8-17.5c0-9.7,3.7-17.7,10.1-17.7
				C34.7,178.1,37.4,186.9,37.4,195.2z M23.3,195.6c0,6.6,1.5,11.3,4.3,11.3c2.7,0,4.2-4.7,4.2-11.4c0-6-1.4-11-4.2-11
				C24.7,184.5,23.3,189.7,23.3,195.6z"/>
			<path class="st14" d="M52.6,196.8c1.6,0.9,2.5,3.1,3,6.4c0.6,3.7,1.3,8.2,1.8,9.6h-5.6c-0.3-1-0.9-4-1.4-8.1
				c-0.5-4.2-1.4-5.3-3.2-5.3h-1v13.3h-5.4v-33.8c1.7-0.4,4-0.7,6.4-0.7c3.2,0,9.4,0.5,9.4,9.9c0,4-1.8,7.2-3.9,8.4V196.8z
				 M47.5,193.7c2.3,0,3.6-2,3.6-4.8c0-3.9-2-4.7-3.3-4.7c-0.9,0-1.4,0.1-1.8,0.2v9.3H47.5z"/>
			<path class="st14" d="M77.6,212.8H72l-1.4-8h-5.5l-1.3,8h-5.5l6.3-34.2h6.9L77.6,212.8z M69.9,199l-1-6.9c-0.3-2-0.7-5.1-1-7.2
				h-0.1c-0.3,2.1-0.7,5.2-1,7.2l-1.1,6.9H69.9z"/>
			<path class="st14" d="M98.1,212.8h-5.4l-4.2-12.4c-1.1-3.3-2.5-7.8-3.3-11.3h-0.1c0.2,4,0.3,9.2,0.3,15.3v8.4h-4.9v-34.2h5.8
				l4.1,12.3c1.1,3.1,2.4,7.4,3.3,10.9h0.1c-0.3-4-0.5-9.3-0.5-15v-8.2h4.9V212.8z"/>
			<path class="st14" d="M119.7,211.5c-1.4,0.8-4.2,1.6-6.8,1.6c-3.8,0-6.5-1.4-8.4-4.1c-2.2-3-3.3-7.7-3.3-13.1
				c0-11.8,5.6-17.7,12.3-17.7c2.5,0,4.5,0.7,5.5,1.4l-1,6.5c-1-0.7-2.3-1.2-4.3-1.2c-3.8,0-6.7,3.2-6.7,11c0,7.3,2.6,10.8,5.9,10.8
				c0.8,0,1.4-0.1,1.7-0.3v-7.2h-2.8v-6.2h8V211.5z"/>
			<path class="st14" d="M137.1,212.8h-13.5v-34.2h13.1v6.5H129v6.9h7.2v6.4H129v8h8.1V212.8z"/>
		</g>
	</g>
</g>
</svg>
