<?xml version="1.0" encoding="utf-8"?>
<!-- Generator: Adobe Illustrator 22.1.0, SVG Export Plug-In . SVG Version: 6.00 Build 0)  -->
<svg version="1.1" id="Layer_1" xmlns="http://www.w3.org/2000/svg" xmlns:xlink="http://www.w3.org/1999/xlink" x="0px" y="0px"
	 viewBox="0 0 153.9 439.6" style="enable-background:new 0 0 153.9 439.6;" xml:space="preserve">
<style type="text/css">
	.st0{fill:#FFFFFF;}
	.st1{fill:url(#SVGID_1_);}
	.st2{fill:url(#SVGID_2_);}
	.st3{fill:url(#SVGID_3_);}
	.st4{fill:url(#SVGID_4_);}
	.st5{fill:url(#SVGID_5_);}
</style>
<path class="st0" d="M128.7,201.8c0,3.5-2.8,6.3-6.3,6.3c-3.5,0-6.3-2.8-6.3-6.3c0-3.5,2.8-6.3,6.3-6.3
	C125.9,195.5,128.7,198.3,128.7,201.8z"/>
<path class="st0" d="M140.8,186.2c0,2.5-2,4.6-4.6,4.6c-2.5,0-4.6-2-4.6-4.6c0-2.5,2-4.6,4.6-4.6
	C138.8,181.6,140.8,183.7,140.8,186.2z"/>
<path class="st0" d="M144,169.2c0,1.7-1.4,3.1-3.1,3.1c-1.7,0-3.1-1.4-3.1-3.1s1.4-3.1,3.1-3.1C142.6,166.1,144,167.5,144,169.2z"/>
<g>
	<g>
		<linearGradient id="SVGID_1_" gradientUnits="userSpaceOnUse" x1="9.9949" y1="52.0998" x2="143.972" y2="52.0998">
			<stop  offset="0" style="stop-color:#EEF3F1"/>
			<stop  offset="0.5225" style="stop-color:#E5EFEE"/>
			<stop  offset="1" style="stop-color:#CEE1DE"/>
		</linearGradient>
		<path class="st1" d="M99.5,47.3V23.5h-45v23.8c0,0,6.7,0-14.5,33.4h74C92.8,47.3,99.5,47.3,99.5,47.3z"/>
		<linearGradient id="SVGID_2_" gradientUnits="userSpaceOnUse" x1="9.9949" y1="93.6199" x2="143.9722" y2="93.6199">
			<stop  offset="0" style="stop-color:#9C4222"/>
			<stop  offset="0.5225" style="stop-color:#432312"/>
			<stop  offset="1" style="stop-color:#351A10"/>
		</linearGradient>
		<path class="st2" d="M114.2,81.1c-0.1-0.1-0.1-0.2-0.2-0.3H40c-0.1,0.1-0.1,0.2-0.2,0.3c-6,9.4-10.8,17.6-14.6,25.4h103.7
			C125,98.7,120.2,90.4,114.2,81.1z"/>
		<linearGradient id="SVGID_3_" gradientUnits="userSpaceOnUse" x1="9.995" y1="160.7558" x2="143.972" y2="160.7558">
			<stop  offset="0" style="stop-color:#E63A38"/>
			<stop  offset="0.5225" style="stop-color:#D82E29"/>
			<stop  offset="1" style="stop-color:#BE2026"/>
		</linearGradient>
		<path class="st3" d="M142.3,168.5c0-24.4-3.5-41.6-13.5-62H25.2c-10,20.4-13.5,37.5-13.5,62c0,18.2,5.2,33.5,9.9,46.5h110.8
			C137.2,202,142.3,186.7,142.3,168.5z"/>
		<linearGradient id="SVGID_4_" gradientUnits="userSpaceOnUse" x1="9.995" y1="323.3631" x2="143.972" y2="323.3631">
			<stop  offset="0" style="stop-color:#9C4222"/>
			<stop  offset="0.5225" style="stop-color:#432312"/>
			<stop  offset="1" style="stop-color:#351A10"/>
		</linearGradient>
		<path class="st4" d="M21.6,215c4.1,11.2,7.9,20.7,7.9,28.9c0,17.9-19.5,47.7-19.5,81.4s9.9,93.4,19.8,101.3c9.9,7.9,14.9,6,26.5-2
			c11.6-7.9,3.3-2,19.8,2h1.7c16.5-4,8.3-9.9,19.8-2c11.6,7.9,16.5,9.9,26.5,2c9.9-7.9,19.8-67.5,19.8-101.3s-19.5-63.6-19.5-81.4
			c0-8.2,3.8-17.8,7.9-28.9H21.6z"/>
	</g>
	<path class="st0" d="M19.6,196.8c0,0,0-0.6,0.1-1.6c0.1-0.5,0.2-1.2,0.4-2c0.3-0.7,0.5-1.6,1-2.5c0.9-1.8,2.3-3.9,4.3-5.7
		c2-1.8,4.6-3.5,7.6-4.7c1.5-0.6,3.1-1.1,4.9-1.4c0.9-0.2,1.8-0.3,2.7-0.4c0.9,0,1.8,0,2.7-0.1c0.4,0,0.9,0,1.3,0
		c0.5,0,1,0.1,1.4,0.1c0.5,0,1,0.1,1.5,0.1c0.5,0,1,0.1,1.5,0.2c0.9,0.2,1.9,0.3,2.9,0.5c1,0.2,1.9,0.5,2.9,0.7
		c3.8,1.1,7.6,2.5,11.4,4.1c3.7,1.6,7.4,3.2,11.1,4.6c1.8,0.7,3.6,1.2,5.5,1.7c0.9,0.2,1.8,0.4,2.7,0.6c0.9,0.2,1.8,0.2,2.7,0.4
		c0.9,0.2,1.7,0.2,2.6,0.2c0.4,0,0.8,0,1.3,0c0.4,0,0.8,0,1.2,0c0.4,0,0.8,0,1.2-0.1l0.6,0l0.2,0l0,0c0.1,0-0.4,0-0.2,0l0.1,0
		l0.4-0.1c0.9-0.1,1.9-0.2,2.8-0.4c2.9-0.5,6.4-1.4,9.7-2.1c1.7-0.4,3.2-0.7,4.8-1.1c0.8-0.2,1.5-0.3,2.2-0.5
		c0.7-0.2,1.4-0.4,2.1-0.5c2.7-0.7,5.2-1.5,7.3-2.4c2.1-0.9,3.8-1.8,5.2-2.8c0.4-0.2,0.6-0.5,1-0.7c0.3-0.2,0.6-0.4,0.8-0.7
		c0.2-0.2,0.5-0.5,0.7-0.7c0.2-0.2,0.4-0.4,0.6-0.6c0.7-0.7,1-1.1,1-1.1l0.9,0.5c0,0-0.1,0.6-0.4,1.7c-0.3,1.1-0.9,2.6-1.9,4.5
		c-1.1,1.8-2.7,3.8-4.8,5.7c-2.1,1.9-4.6,3.7-7.5,5.3c-1.4,0.8-3,1.5-4.5,2.2c-1.6,0.7-3.3,1.4-4.9,2c-3.3,1.3-6.8,2.5-11.4,3.2
		c-0.9,0.1-1.9,0.2-2.8,0.2l-0.4,0l-0.1,0c0.2,0-0.3,0-0.3,0l-0.1,0l-0.2,0l-0.8,0c-0.6,0-1.1-0.1-1.7-0.1c-0.6,0-1.1,0-1.7-0.1
		c-0.5-0.1-1.1-0.2-1.6-0.3c-1.1-0.2-2.2-0.4-3.2-0.7c-1.1-0.3-2.1-0.6-3.2-0.9c-1-0.4-2-0.8-3.1-1.1c-1-0.4-2-0.9-3-1.3
		c-1-0.4-1.9-0.9-2.9-1.4c-3.8-1.9-7.4-3.9-10.9-5.8c-3.5-1.9-6.9-3.6-10.3-5c-0.8-0.3-1.7-0.7-2.5-1c-0.8-0.3-1.7-0.5-2.5-0.8
		c-0.4-0.1-0.8-0.2-1.2-0.3c-0.4-0.1-0.8-0.2-1.2-0.3c-0.4-0.1-0.8-0.2-1.2-0.3c-0.4-0.1-0.9-0.1-1.3-0.2c-0.8-0.1-1.6-0.2-2.4-0.3
		c-0.8,0-1.5-0.1-2.3,0c-1.5,0-2.9,0.3-4.3,0.6c-2.7,0.7-5.1,1.8-7.1,3.2c-1.9,1.3-3.4,2.9-4.4,4.3c-0.5,0.7-0.8,1.4-1.2,2.1
		c-0.2,0.6-0.4,1.2-0.6,1.6c-0.2,1-0.3,1.6-0.3,1.6L19.6,196.8z"/>
	<g>
		<path class="st0" d="M52.4,169c-1.5,0.7-4.7,1.6-8.8,1.6c-13.2,0-19.5-10.2-19.5-23c0-16.5,9.7-24.4,20.5-24.4
			c4.2,0,7.1,1,8.3,1.7l-1.7,8.5c-1.4-0.7-3.4-1.4-6.1-1.4c-6,0-11,4.5-11,14.9c0,9.6,4.3,14.6,11.1,14.6c2.2,0,4.6-0.5,6.1-1.1
			L52.4,169z"/>
		<path class="st0" d="M84.1,152.9c0,13.1-7.6,17.7-14.3,17.7c-8.4,0-14.2-6.5-14.2-17.3c0-11.3,6.2-17.7,14.5-17.7
			C78.9,135.7,84.1,142.9,84.1,152.9z M70,143.3c-3.6,0-4.7,5.1-4.7,9.8c0,5.6,1.5,9.9,4.7,9.9c3.1,0,4.5-4.5,4.5-9.9
			C74.5,148.2,73.2,143.3,70,143.3z"/>
		<path class="st0" d="M98.9,170h-9.5v-48.1h9.5V170z"/>
		<path class="st0" d="M129.4,162c0,3,0.1,5.9,0.5,7.9h-8.5l-0.5-3.2h-0.2c-1.8,2.7-4.7,3.9-7.8,3.9c-5.5,0-9.1-4.7-9.1-10.3
			c0-8.9,7.2-12.7,16.2-12.8c0-2.6-1-4.4-4.9-4.4c-2.9,0-5.6,1-7.5,2.3l-1.7-6.8c1.9-1.2,5.9-2.9,11.1-2.9c10,0,12.5,7.1,12.5,14.5
			V162z M120.2,154.1c-3.9,0-7.3,1.3-7.3,5.1c0,2.7,1.5,3.9,3.2,3.9c1.9,0,4.1-1.6,4.1-4.7V154.1z"/>
	</g>
	<path class="st0" d="M46,276.9c0,0-0.2,0.4-0.7,1.3c-0.2,0.4-0.5,0.9-0.8,1.5c-0.3,0.6-0.6,1.3-1,2.1c-0.3,0.8-0.7,1.7-1.1,2.7
		c-0.4,1-0.8,2-1.2,3.2c-0.8,2.3-1.5,5-2.1,7.9c-1.2,5.9-2.1,12.9-2.1,20.4c0,0.9,0,1.9,0,2.8c0,1,0,1.9,0.1,2.9l0.1,1.3l0.1,1.5
		c0.1,1,0.1,2,0.2,3c0.1,2.1,0.3,4,0.5,5.9c0.2,1.9,0.5,4,0.7,6c0.3,2,0.6,4,1,6c0.3,2,0.8,4,1.2,5.9c0.4,2,0.9,3.9,1.3,5.8
		c0.4,1.9,0.8,3.8,1.1,5.7c0.6,3.8,1.1,7.5,1.4,11.1c0.3,3.6,0.6,6.9,0.7,10.1c0.3,6.3,0.2,11.6-0.1,15.3c-0.1,1.9-0.2,3.3-0.4,4.4
		c-0.1,1-0.2,1.6-0.2,1.6l-1.2,0.2c0,0-0.3-0.5-0.7-1.4c-0.4-0.9-1-2.2-1.8-3.9c-1.4-3.4-3.3-8.3-5.1-14.2c-0.9-3-1.8-6.2-2.7-9.7
		c-0.9-3.5-1.7-7.1-2.3-11c-0.3-1.9-0.6-3.9-0.7-6c-0.2-2-0.3-4.1-0.5-6.2c-0.1-2.1-0.3-4.2-0.3-6.3c-0.1-2.1-0.2-4.2-0.3-6.4
		c-0.1-2.1-0.2-4.2-0.2-6.4c0-2.2,0-4.4,0.1-6.4c0-1,0.1-2,0.1-3.1l0.1-1.5c0-0.2,0-0.1,0-0.1l0,0l0-0.1l0-0.2l0-0.4l0.1-0.8
		c0.1-1,0.2-2.1,0.3-3.1c0.1-1,0.2-2,0.4-3c0.5-4,1.2-7.8,2.1-11.4c0.9-3.6,1.9-6.9,2.9-9.9c1.1-3,2.3-5.6,3.4-7.9
		c0.6-1.1,1.2-2.2,1.7-3.1c0.6-0.9,1.1-1.8,1.6-2.5c0.5-0.7,1-1.4,1.4-2c0.4-0.6,0.8-1,1.1-1.4c0.6-0.7,0.9-1.1,0.9-1.1L46,276.9z"
		/>
	<path class="st0" d="M44.5,95.4c0,0,0.1-0.5,0.3-1.4c0.1-0.5,0.2-1,0.3-1.6c0.1-0.6,0.3-1.3,0.5-2.1c0.2-0.7,0.4-1.6,0.6-2.4
		c0.2-0.9,0.5-1.7,0.7-2.7c0.3-0.9,0.5-1.9,0.8-2.8c0.3-0.9,0.6-1.9,0.9-2.8c0.3-0.9,0.5-2,0.7-3c0.2-1,0.4-2,0.8-2.8
		c0.4-0.8,1-1.5,1.6-2c0.6-0.6,1.3-1,2-1.4c0.7-0.4,1.4-0.7,2.1-1c0.7-0.3,1.3-0.4,1.9-0.5c0.3-0.1,0.5-0.1,0.8-0.1
		c0.2,0,0.4-0.1,0.6-0.1c0.3,0,0.6,0,0.6,0l1,0.7c0,0,0.1,0.2,0.2,0.6c0.1,0.2,0.1,0.4,0.2,0.6c0.1,0.2,0.2,0.5,0.2,0.8
		c0.1,0.6,0.3,1.3,0.4,2.1c0.1,0.8,0.2,1.6,0.1,2.5c0,0.9-0.1,1.7-0.3,2.6c-0.2,0.9-0.5,1.7-0.9,2.5c-0.5,0.8-1.2,1.4-1.9,2
		c-0.7,0.6-1.5,1.3-2.1,2c-0.6,0.7-1.3,1.5-1.9,2.1c-0.6,0.7-1.3,1.4-1.9,2c-0.6,0.6-1.3,1.3-1.9,1.8c-0.6,0.6-1.2,1.1-1.7,1.6
		c-0.5,0.5-1,0.9-1.5,1.4c-0.4,0.4-0.8,0.7-1.2,1c-0.7,0.6-1,0.9-1,0.9L44.5,95.4z"/>
	<linearGradient id="SVGID_5_" gradientUnits="userSpaceOnUse" x1="49.8037" y1="26.4006" x2="104.1633" y2="26.4006">
		<stop  offset="0" style="stop-color:#E63A38"/>
		<stop  offset="0.5225" style="stop-color:#D82E29"/>
		<stop  offset="1" style="stop-color:#BE2026"/>
	</linearGradient>
	<rect x="49.8" y="8.5" class="st5" width="54.4" height="35.9"/>
</g>
</svg>
