<?xml version="1.0" encoding="utf-8"?>
<!-- Generator: Adobe Illustrator 22.1.0, SVG Export Plug-In . SVG Version: 6.00 Build 0)  -->
<svg version="1.1" id="Layer_1" xmlns="http://www.w3.org/2000/svg" xmlns:xlink="http://www.w3.org/1999/xlink" x="0px" y="0px"
	 viewBox="0 0 496.2 100.6" style="enable-background:new 0 0 496.2 100.6;" xml:space="preserve">
<g>
	<path id="H" d="M81.6,52.4c0.3,0.5,0.5,1.3,0.5,2.3c0,1.8-0.4,3.2-1.3,4.2c-4.5,5.5-9.3,8.3-14.4,8.3c-4.4,0-8-1.7-10.6-5.1
		c-2.6-3.4-4-8.3-4-14.7c0-1.5,0.1-3.1,0.2-4.7c-3,0.5-6.3,1-9.8,1.2c-2.4,0.2-4,0.3-4.9,0.3c-0.9,4.7-2.2,10.3-3.8,17.1
		c-1,4-2.8,5.9-5.5,5.9c-2.9,0-4.4-1.3-4.4-4c0-0.6,0.1-1.4,0.3-2.5c1.5-6.2,2.8-11.5,3.7-15.9l-3.3,0.1c-1.5,0-2.6-0.3-3.3-0.8
		c-0.7-0.5-1-1.4-1-2.6c0-1.5,0.4-2.6,1.3-3.3c0.9-0.7,2.3-1.1,4.3-1.2l3.6-0.1c1.2-6.4,1.8-11.3,1.8-14.7c0-2.1-0.3-3.6-1-4.4
		c-0.6-0.8-1.5-1.2-2.5-1.2c-3.2,0-6.8,2.7-10.8,8c-0.6,0.8-1.3,1.2-2,1.2c-0.6,0-1.2-0.3-1.6-0.9c-0.5-0.6-0.7-1.3-0.7-2.3
		c0-1.4,0.6-2.9,1.7-4.5c2-2.8,4.5-5.1,7.6-6.9c3.1-1.8,6.2-2.7,9.3-2.7c3,0,5.3,1,6.9,3c1.6,2,2.4,5.2,2.4,9.5
		c0,3.8-0.5,8.9-1.6,15.4l6.7-0.3c2.9-0.1,5.3-0.4,7.4-0.7c0.8-5,2.1-9.7,3.8-14.1c1.7-4.4,3.8-7.9,6.3-10.7
		c2.5-2.7,5.3-4.1,8.4-4.1c2.3,0,4.1,0.9,5.4,2.7c1.3,1.8,2,4.2,2,7.1c0,11.3-5.8,19.1-17.3,23.5c-0.1,1.8-0.2,3.7-0.2,5.7
		c0,4.8,0.6,8.2,1.8,10.2c1.2,2,2.8,3,5,3c1.9,0,3.6-0.5,5.1-1.5c1.5-1,3.3-2.7,5.3-5c0.5-0.6,1.2-1,1.8-1
		C80.7,51.6,81.2,51.8,81.6,52.4z M67.7,15.5c-1.1,1.8-2.2,4.3-3.2,7.5c-1,3.1-1.8,6.6-2.4,10.3c3.6-1.5,6.3-3.6,8.1-6.4
		c1.7-2.8,2.6-6.4,2.6-10.7c0-1-0.2-1.9-0.5-2.5c-0.4-0.6-0.8-0.9-1.4-0.9C69.9,12.8,68.9,13.7,67.7,15.5z"/>
	<path id="a" d="M78.2,64.1c-1.7-2.1-2.5-4.7-2.5-8.1c0-3.6,0.8-7.1,2.5-10.4c1.7-3.3,3.9-5.9,6.7-7.9c2.8-2,5.8-3,8.9-3
		c1,0,1.7,0.2,2,0.6c0.3,0.4,0.6,1.1,0.9,2.1c1-0.2,2-0.3,3-0.3c2.2,0,3.4,0.8,3.4,2.4c0,1-0.3,3.2-1,6.8c-1,5.2-1.6,8.9-1.6,10.9
		c0,0.7,0.2,1.2,0.5,1.6c0.3,0.4,0.8,0.6,1.3,0.6c0.9,0,1.9-0.6,3.1-1.7c1.2-1.1,2.9-2.9,5-5.4c0.5-0.6,1.2-1,1.8-1
		c0.6,0,1.1,0.3,1.4,0.8c0.3,0.5,0.5,1.3,0.5,2.3c0,1.8-0.4,3.2-1.3,4.2c-1.9,2.3-3.9,4.3-5.9,5.9c-2.1,1.6-4.1,2.4-6.1,2.4
		c-1.5,0-2.9-0.5-4.1-1.5c-1.3-1-2.2-2.4-2.8-4.2c-2.4,3.8-5.4,5.7-9,5.7C82.1,67.1,79.9,66.1,78.2,64.1z M90.3,58.5
		c0.9-1.2,1.6-2.8,2-4.7l2.5-12.6c-1.9,0-3.7,0.8-5.3,2.2c-1.6,1.4-2.9,3.2-3.9,5.5c-1,2.3-1.4,4.7-1.4,7.2c0,1.4,0.3,2.5,0.9,3.1
		c0.6,0.7,1.4,1,2.4,1C88.4,60.2,89.4,59.7,90.3,58.5z"/>
	<path id="p" d="M146.6,52.4c0.3,0.5,0.5,1.3,0.5,2.3c0,1.8-0.4,3.2-1.3,4.2c-2,2.4-4.1,4.4-6.3,5.9c-2.3,1.6-4.8,2.3-7.7,2.3
		c-2.4,0-4.4-0.9-5.9-2.6c-2.6,1.7-5.3,2.6-8.1,2.6c-0.6,8.8-1.9,16.2-4,22.1c-2.1,5.9-5.2,8.9-9.2,8.9c-2.5,0-4.3-0.9-5.5-2.7
		c-1.2-1.8-1.8-4.2-1.8-7.4c0-4.5,1-9.7,3.1-15.6c2.1-5.9,5.2-12.5,9.5-19.7c0-6.7,0-11.3-0.1-13.9c0-1.3,0.5-2.4,1.6-3.1
		c1.1-0.8,2.5-1.2,4.1-1.2c1,0,1.7,0.2,2.1,0.6c0.4,0.4,0.7,1.2,0.7,2.3c0,1.1,0,2,0.1,2.5c1.5-1.8,2.9-3.1,4.3-3.9
		c1.4-0.8,2.9-1.2,4.5-1.2c2.6,0,4.6,1,6.3,3.1c1.6,2.1,2.4,4.7,2.4,8.1c0,2.4-0.4,4.8-1.2,7c-0.8,2.3-1.8,4.4-3.2,6.2
		c1,0.3,1.8,0.4,2.4,0.4c1.5,0,2.9-0.5,4.3-1.6c1.4-1.1,3.1-2.9,5.3-5.5c0.5-0.6,1.2-1,1.8-1C145.8,51.6,146.2,51.8,146.6,52.4z
		 M108.1,83.3c0.8-5.4,1.3-12,1.6-20c-2,4.6-3.5,8.9-4.7,13.1c-1.1,4.1-1.7,7.6-1.7,10.5c0,1.5,0.2,2.6,0.5,3.4
		c0.3,0.8,0.7,1.2,1.2,1.2C106.3,91.4,107.3,88.7,108.1,83.3z M122.7,57.9c1.4-1.4,2.5-3.2,3.3-5.3c0.8-2.1,1.2-4.3,1.2-6.7
		c0-1.4-0.3-2.4-0.8-3.1c-0.5-0.7-1.3-1.1-2.2-1.1c-1.6,0-3.6,1.7-5.9,5.2c0,2-0.1,4.9-0.1,8.8c0,2.1,0,3.7-0.1,4.9
		C119.7,60.2,121.3,59.3,122.7,57.9z"/>
	<path id="p_1_" d="M179.5,52.4c0.3,0.5,0.5,1.3,0.5,2.3c0,1.8-0.4,3.2-1.3,4.2c-2,2.4-4.1,4.4-6.3,5.9c-2.3,1.6-4.8,2.3-7.7,2.3
		c-2.4,0-4.4-0.9-5.9-2.6c-2.6,1.7-5.3,2.6-8.1,2.6c-0.6,8.8-1.9,16.2-4,22.1c-2.1,5.9-5.2,8.9-9.2,8.9c-2.5,0-4.3-0.9-5.5-2.7
		c-1.2-1.8-1.8-4.2-1.8-7.4c0-4.5,1-9.7,3.1-15.6c2.1-5.9,5.2-12.5,9.5-19.7c0-6.7,0-11.3-0.1-13.9c0-1.3,0.5-2.4,1.6-3.1
		c1.1-0.8,2.5-1.2,4.1-1.2c1,0,1.7,0.2,2.1,0.6c0.4,0.4,0.7,1.2,0.7,2.3c0,1.1,0,2,0.1,2.5c1.5-1.8,2.9-3.1,4.3-3.9
		c1.4-0.8,2.9-1.2,4.5-1.2c2.6,0,4.6,1,6.3,3.1c1.6,2.1,2.4,4.7,2.4,8.1c0,2.4-0.4,4.8-1.2,7c-0.8,2.3-1.8,4.4-3.2,6.2
		c1,0.3,1.8,0.4,2.4,0.4c1.5,0,2.9-0.5,4.3-1.6c1.4-1.1,3.1-2.9,5.3-5.5c0.5-0.6,1.2-1,1.8-1C178.7,51.6,179.1,51.8,179.5,52.4z
		 M141,83.3c0.8-5.4,1.3-12,1.6-20c-2,4.6-3.5,8.9-4.7,13.1c-1.1,4.1-1.7,7.6-1.7,10.5c0,1.5,0.2,2.6,0.5,3.4
		c0.3,0.8,0.7,1.2,1.2,1.2C139.2,91.4,140.2,88.7,141,83.3z M155.5,57.9c1.4-1.4,2.5-3.2,3.3-5.3c0.8-2.1,1.2-4.3,1.2-6.7
		c0-1.4-0.3-2.4-0.8-3.1c-0.5-0.7-1.3-1.1-2.2-1.1c-1.6,0-3.6,1.7-5.9,5.2c0,2-0.1,4.9-0.1,8.8c0,2.1,0,3.7-0.1,4.9
		C152.6,60.2,154.2,59.3,155.5,57.9z"/>
	<path id="y" d="M200.6,35.3c0.4,0.3,0.6,0.7,0.6,1.4c0,1.1-0.6,5-1.8,11.7c-1,6.4-1.7,10.2-1.8,11.4c-1.7,11.7-4,21-7,27.8
		c-3,6.8-6.9,10.3-11.8,10.3c-2.3,0-4.2-0.7-5.7-2.2c-1.5-1.4-2.2-3.3-2.2-5.6c0-2.1,0.5-4.3,1.5-6.6c1-2.2,2.8-4.8,5.5-7.7
		c2.7-2.9,6.4-6.2,11.3-10l0.2-1.6c0.3-1.7,0.7-4.1,1.1-7.2c-0.9,3.3-2.2,5.8-3.8,7.5c-1.6,1.7-3.4,2.6-5.2,2.6
		c-2.1,0-3.7-0.9-5-2.8c-1.3-1.9-1.9-4.3-1.9-7.1c0-3.4,0.2-6.6,0.7-9.4c0.5-2.8,1.2-5.9,2.3-9.1c0.5-1.4,1.1-2.3,1.9-2.9
		c0.8-0.6,2.1-0.9,3.9-0.9c1,0,1.7,0.2,2.1,0.5c0.4,0.3,0.6,0.8,0.6,1.4c0,0.4-0.3,1.6-0.8,3.7c-0.5,1.7-0.8,3.2-1.1,4.6
		c-0.4,1.9-0.7,3.7-1,5.4c-0.3,1.7-0.4,3.1-0.4,4.2c0,1.7,0.5,2.6,1.4,2.6c0.7,0,1.5-0.7,2.6-2.1c1-1.4,2.1-3.4,3.3-6.2
		c1.2-2.8,2.3-6.2,3.4-10.3c0.4-1.4,0.9-2.3,1.7-2.9c0.8-0.6,1.9-0.9,3.4-0.9C199.4,34.9,200.2,35.1,200.6,35.3z M183.3,87.3
		c1.4-2.6,2.8-7,4.2-13.2c-3.5,3-6.1,5.7-7.6,8.1c-1.6,2.4-2.4,4.6-2.4,6.4c0,0.8,0.1,1.4,0.4,1.9c0.3,0.5,0.8,0.8,1.5,0.8
		C180.7,91.3,181.9,90,183.3,87.3z"/>
	<path id="B" d="M275.3,33.1c-2.7,2.8-6.7,4.8-12,6.1c2.8,0.8,5,2,6.4,3.8c1.5,1.8,2.2,3.8,2.2,6.1c0,3.6-1.1,6.7-3.4,9.4
		c-2.3,2.6-5.6,4.7-9.9,6.1c-4.3,1.4-9.6,2.2-15.7,2.2c-2.3,0-4.1-0.1-5.5-0.2c0,1.3-0.6,2.2-1.6,2.9c-1,0.6-2.4,1-4,1
		c-1.6,0-2.8-0.4-3.4-1.1c-0.6-0.7-0.9-1.8-0.8-3.2c0.4-6.4,1.2-13.1,2.4-20.1c1.2-7,2.7-13.8,4.5-20.3c0.3-1.1,1-1.9,1.9-2.4
		c1-0.5,2.2-0.7,3.8-0.7c2.8,0,4.2,0.8,4.2,2.3c0,0.6-0.1,1.4-0.4,2.2c-1.2,3.6-2.4,8.4-3.6,14.5c-1.2,6.1-2,11.9-2.5,17.4
		c2.2,0.2,4,0.3,5.3,0.3c6.4,0,11.1-0.9,14.1-2.8c3-1.8,4.5-4.2,4.5-7.1c0-2-0.9-3.7-2.6-5.1c-1.7-1.4-4.6-2.1-8.6-2.3
		c-0.9,0-1.6-0.3-1.9-0.7c-0.4-0.4-0.5-1.1-0.5-2c0-1.3,0.3-2.4,0.8-3.2c0.5-0.8,1.5-1.3,3-1.3c3.2-0.1,6.2-0.6,8.8-1.4
		c2.6-0.9,4.7-2.1,6.2-3.7c1.5-1.6,2.3-3.4,2.3-5.5c0-2.6-1.3-4.7-3.9-6.3c-2.6-1.5-6.6-2.3-12-2.3c-4.9,0-9.6,0.6-14.2,1.9
		c-4.6,1.3-8.4,2.8-11.6,4.8c-1.5,0.9-2.7,1.3-3.7,1.3c-0.8,0-1.4-0.3-1.9-0.9c-0.4-0.6-0.6-1.3-0.6-2.2c0-1.1,0.2-2.1,0.7-2.9
		c0.5-0.8,1.6-1.8,3.5-2.8c3.8-2.2,8.3-3.9,13.5-5.1c5.2-1.2,10.4-1.8,15.8-1.8c8.3,0,14.4,1.4,18.5,4.2c4.1,2.8,6.1,6.5,6.1,11
		C279.4,26.9,278,30.3,275.3,33.1z"/>
	<path id="i" d="M280.4,64c-1.3-2.1-2-4.9-2-8.3c0-2.1,0.3-4.7,0.8-7.9c0.5-3.2,1.2-6.2,2-9c0.4-1.5,1-2.5,1.6-3
		c0.7-0.5,1.8-0.8,3.3-0.8c2.3,0,3.5,0.8,3.5,2.3c0,1.1-0.4,3.8-1.3,7.9c-1.1,5-1.6,8.4-1.6,10.2c0,1.4,0.2,2.4,0.5,3.1
		c0.4,0.7,1,1.1,1.8,1.1c0.8,0,1.8-0.6,3.1-1.7c1.2-1.1,2.9-2.9,4.9-5.4c0.5-0.6,1.2-1,1.8-1c0.6,0,1.1,0.3,1.4,0.8
		c0.3,0.5,0.5,1.3,0.5,2.3c0,1.8-0.4,3.2-1.3,4.2c-4.5,5.5-8.7,8.3-12.7,8.3C283.9,67.1,281.8,66.1,280.4,64z M283.1,29.1
		c-1-0.9-1.4-2.1-1.4-3.7c0-1.6,0.6-2.9,1.9-4c1.3-1.1,2.8-1.6,4.7-1.6c1.7,0,3.1,0.4,4.1,1.2c1,0.8,1.6,2,1.6,3.5
		c0,1.8-0.6,3.3-1.8,4.3c-1.2,1.1-2.8,1.6-4.7,1.6C285.5,30.4,284.1,30,283.1,29.1z"/>
	<path id="r" d="M325.5,45.4c0.7,0.7,1.1,1.6,1.1,2.6c0,0.6-0.1,1.2-0.4,1.9c-0.7,1.7-1.8,3.1-3.1,4.2c-1.3,1.1-2.8,1.7-4.4,1.7
		c-1.3,0-2.4-0.5-3.2-1.4c-0.9-0.9-1.3-2.1-1.3-3.7c0-0.9,0-1.8,0.1-2.8c0.1-0.7,0.1-1.2,0.1-1.5c0-0.4-0.1-0.6-0.2-0.8
		c-0.2-0.2-0.4-0.3-0.6-0.3c-0.6,0-1.5,0.8-2.6,2.3c-1.1,1.5-2.2,3.5-3.3,6.1c-1.1,2.5-2,5.2-2.7,7.9c-0.5,2.2-1.1,3.6-1.7,4.4
		c-0.6,0.7-1.7,1.1-3.1,1.1c-1.7,0-3-0.9-3.7-2.7c-0.7-1.8-1.1-4.7-1.1-8.8c0-5.9,0.8-11.6,2.5-16.9c0.4-1.3,1.1-2.3,2-2.9
		c0.9-0.6,2.2-0.9,3.9-0.9c0.9,0,1.5,0.1,1.9,0.3c0.4,0.2,0.5,0.7,0.5,1.3c0,0.7-0.3,2.4-1,4.9c-0.5,1.8-0.8,3.4-1.1,4.8
		c-0.3,1.4-0.5,3.1-0.7,5.1c1.5-3.9,3.2-7.1,5.1-9.6c1.9-2.5,3.7-4.2,5.5-5.3c1.8-1,3.4-1.6,4.9-1.6c1.3,0,2.3,0.4,3,1.1
		c0.7,0.8,1.1,1.9,1.1,3.3c0,0.9-0.3,2.5-0.8,4.9h0.6C323.9,44.3,324.8,44.7,325.5,45.4z"/>
	<path id="t" d="M361.1,52.4c0.3,0.5,0.5,1.3,0.5,2.3c0,1.8-0.4,3.2-1.3,4.2c-2,2.4-4.1,4.4-6.4,5.9c-2.3,1.6-5,2.3-8,2.3
		c-9.3,0-14-6.5-14-19.6c0-2,0.1-4,0.2-6.1h-2.7c-1.4,0-2.3-0.2-2.8-0.8c-0.5-0.5-0.7-1.3-0.7-2.4c0-2.6,1-3.8,3.1-3.8h3.9
		c0.8-5,2-9.6,3.6-13.7c1.6-4.1,3.5-7.5,5.8-9.9c2.3-2.5,4.7-3.7,7.3-3.7c1.9,0,3.4,0.8,4.5,2.5c1.1,1.7,1.6,3.8,1.6,6.4
		c0,7.1-3,13.2-8.9,18.5h7.7c0.7,0,1.3,0.2,1.6,0.5c0.3,0.3,0.5,0.9,0.5,1.8c0,3.1-2.6,4.7-7.7,4.7h-8.3c-0.1,2.3-0.1,4.1-0.1,5.3
		c0,4.7,0.6,8.1,1.7,10c1.1,1.9,2.9,2.9,5.3,2.9c2,0,3.7-0.6,5.2-1.8c1.5-1.2,3.3-3,5.3-5.3c0.5-0.6,1.2-1,1.8-1
		C360.2,51.6,360.7,51.8,361.1,52.4z M345.4,16.2c-0.8,1.7-1.6,4.1-2.4,7.1c-0.8,3-1.4,6.4-1.9,10.1c2.7-2.3,4.7-4.9,6.1-7.8
		c1.3-2.9,2-5.5,2-7.9c0-2.7-0.5-4-1.5-4C347,13.7,346.2,14.5,345.4,16.2z"/>
	<path id="h" d="M395.4,52.4c0.3,0.5,0.5,1.3,0.5,2.3c0,1.8-0.4,3.2-1.3,4.2c-2.1,2.4-4.3,4.4-6.5,5.9c-2.2,1.6-4.7,2.3-7.6,2.3
		c-2.3,0-4.1-0.7-5.3-2c-1.2-1.3-1.8-3.3-1.8-5.8c0-1.3,0.3-3.6,1-6.8c0.6-2.9,0.9-4.9,0.9-5.9c0-0.7-0.3-1.1-0.8-1.1
		c-0.6,0-1.4,0.8-2.5,2.3c-1.1,1.5-2.2,3.5-3.3,6.1c-1.1,2.5-2,5.2-2.7,7.9c-0.9,3.6-3,5.5-6.4,5.5c-1.4,0-2.3-0.5-2.7-1.5
		c-0.4-1-0.6-2.7-0.6-5.3c0-1.5,0-2.6,0.1-3.5l0.1-5.5c0-7,0.7-14.3,2.2-22c1.4-7.6,3.6-14,6.4-19.2c2.8-5.2,6.2-7.8,10.1-7.8
		c2.1,0,3.8,0.9,5.1,2.7c1.3,1.8,1.9,4.1,1.9,7c0,4.6-1.3,9.4-4,14.3c-2.7,4.9-7.1,10.7-13.1,17.3c-0.1,2.4-0.2,4.8-0.2,7.3
		c1.5-3.9,3.2-7,5-9.5c1.8-2.4,3.7-4.2,5.5-5.2c1.8-1,3.5-1.6,5-1.6c3,0,4.4,1.5,4.4,4.4c0,1.8-0.5,5-1.5,9.6
		c-0.9,4-1.3,6.6-1.3,7.9c0,1.8,0.7,2.7,2,2.7c0.9,0,2-0.6,3.2-1.7c1.3-1.1,2.9-2.9,5-5.4c0.5-0.6,1.2-1,1.8-1
		C394.6,51.6,395,51.8,395.4,52.4z M370.9,12.8c-1,2.3-2,5.5-2.9,9.5c-0.9,4-1.7,8.3-2.3,13c2.8-3.3,5.2-7,7-10.9
		c1.8-3.9,2.8-7.5,2.8-10.7c0-1.5-0.2-2.6-0.5-3.4c-0.3-0.8-0.8-1.2-1.4-1.2C372.8,9.3,371.9,10.5,370.9,12.8z"/>
	<path id="d" d="M430.6,52.4c0.3,0.5,0.5,1.3,0.5,2.3c0,1.8-0.4,3.2-1.3,4.2c-1.9,2.3-3.9,4.2-6.2,5.8c-2.2,1.6-4.4,2.4-6.6,2.4
		c-3.5,0-6.1-2-7.9-6.1c-1.9,2.4-3.6,4-5,4.9c-1.4,0.8-3.1,1.2-5,1.2c-2.8,0-5.1-1-6.9-3.1c-1.8-2.1-2.7-4.8-2.7-8.1
		c0-3.6,0.8-7,2.3-10.2c1.5-3.1,3.7-5.7,6.4-7.7c2.7-2,5.8-3.2,9.1-3.5c0.9-8.8,2.5-16.4,5-22.7c2.4-6.3,5.6-9.4,9.6-9.4
		c2,0,3.6,0.9,4.9,2.7c1.3,1.8,1.9,4.5,1.9,8.1c0,5.1-1.3,11.1-3.8,17.9c-2.5,6.8-5.9,13.9-10.1,21.1c0.2,2.6,0.6,4.5,1.2,5.7
		c0.6,1.1,1.4,1.7,2.4,1.7c1.2,0,2.5-0.5,3.8-1.6c1.3-1.1,3-2.9,5.1-5.5c0.5-0.6,1.2-1,1.8-1C429.8,51.6,430.3,51.8,430.6,52.4z
		 M404,59.2c0.9-0.7,2-2,3.3-3.9c-0.5-2.5-0.7-5.2-0.7-8.3c0-1.1,0-2.9,0.1-5.3c-2.5,0.8-4.6,2.5-6.3,5c-1.7,2.6-2.5,5.4-2.5,8.6
		c0,3.3,1.1,5,3.4,5C402.3,60.2,403.2,59.9,404,59.2z M418.5,13.8c-0.9,3.1-1.6,7.1-2.2,12.1c-0.6,5-1.1,10.2-1.3,15.6
		c5.1-11.1,7.7-20.1,7.7-26.8c0-1.7-0.1-3.1-0.4-4c-0.3-1-0.6-1.4-1.1-1.4C420.3,9.2,419.4,10.8,418.5,13.8z"/>
	<path id="a_1_" d="M426.5,64.1c-1.7-2.1-2.5-4.7-2.5-8.1c0-3.6,0.8-7.1,2.5-10.4c1.7-3.3,3.9-5.9,6.7-7.9c2.8-2,5.8-3,8.9-3
		c1,0,1.7,0.2,2,0.6c0.3,0.4,0.6,1.1,0.9,2.1c1-0.2,2-0.3,3-0.3c2.2,0,3.4,0.8,3.4,2.4c0,1-0.3,3.2-1,6.8c-1,5.2-1.6,8.9-1.6,10.9
		c0,0.7,0.2,1.2,0.5,1.6c0.3,0.4,0.8,0.6,1.3,0.6c0.9,0,1.9-0.6,3.1-1.7c1.2-1.1,2.9-2.9,5-5.4c0.5-0.6,1.2-1,1.8-1
		c0.6,0,1.1,0.3,1.4,0.8c0.3,0.5,0.5,1.3,0.5,2.3c0,1.8-0.4,3.2-1.3,4.2c-1.9,2.3-3.9,4.3-5.9,5.9c-2.1,1.6-4.1,2.4-6.1,2.4
		c-1.5,0-2.9-0.5-4.1-1.5c-1.3-1-2.2-2.4-2.8-4.2c-2.4,3.8-5.4,5.7-9,5.7C430.5,67.1,428.2,66.1,426.5,64.1z M438.6,58.5
		c0.9-1.2,1.6-2.8,2-4.7l2.5-12.6c-1.9,0-3.7,0.8-5.3,2.2c-1.6,1.4-2.9,3.2-3.9,5.5c-1,2.3-1.4,4.7-1.4,7.2c0,1.4,0.3,2.5,0.9,3.1
		c0.6,0.7,1.4,1,2.4,1C436.8,60.2,437.7,59.7,438.6,58.5z"/>
	<path id="y_1_" d="M483.2,35.3c0.4,0.3,0.6,0.7,0.6,1.4c0,1.1-0.6,5-1.8,11.7c-1.1,6.4-1.7,10.2-1.8,11.4c-1.7,11.7-4,21-7,27.8
		c-3,6.8-6.9,10.3-11.8,10.3c-2.3,0-4.2-0.7-5.7-2.2c-1.5-1.4-2.2-3.3-2.2-5.6c0-2.1,0.5-4.3,1.5-6.6c1-2.2,2.8-4.8,5.5-7.7
		c2.7-2.9,6.4-6.2,11.3-10l0.2-1.6c0.3-1.7,0.7-4.1,1.1-7.2c-0.9,3.3-2.2,5.8-3.8,7.5c-1.6,1.7-3.4,2.6-5.2,2.6
		c-2.1,0-3.7-0.9-5-2.8c-1.3-1.9-1.9-4.3-1.9-7.1c0-3.4,0.2-6.6,0.7-9.4c0.5-2.8,1.2-5.9,2.3-9.1c0.5-1.4,1.1-2.3,1.9-2.9
		c0.8-0.6,2.1-0.9,3.9-0.9c1,0,1.7,0.2,2.1,0.5c0.4,0.3,0.6,0.8,0.6,1.4c0,0.4-0.3,1.6-0.8,3.7c-0.5,1.7-0.8,3.2-1.1,4.6
		c-0.4,1.9-0.7,3.7-1,5.4c-0.3,1.7-0.4,3.1-0.4,4.2c0,1.7,0.5,2.6,1.4,2.6c0.7,0,1.5-0.7,2.6-2.1c1-1.4,2.1-3.4,3.3-6.2
		c1.2-2.8,2.3-6.2,3.4-10.3c0.4-1.4,0.9-2.3,1.7-2.9c0.8-0.6,1.9-0.9,3.4-0.9C482,34.9,482.7,35.1,483.2,35.3z M465.9,87.3
		c1.4-2.6,2.8-7,4.2-13.2c-3.5,3-6.1,5.7-7.6,8.1c-1.6,2.4-2.4,4.6-2.4,6.4c0,0.8,0.1,1.4,0.4,1.9c0.3,0.5,0.8,0.8,1.5,0.8
		C463.2,91.3,464.5,90,465.9,87.3z"/>
</g>
</svg>
