<?xml version="1.0" encoding="utf-8"?>
<!-- Generator: Adobe Illustrator 22.1.0, SVG Export Plug-In . SVG Version: 6.00 Build 0)  -->
<svg version="1.1" id="Layer_1" xmlns="http://www.w3.org/2000/svg" xmlns:xlink="http://www.w3.org/1999/xlink" x="0px" y="0px"
	 viewBox="0 0 156.6 208.6" style="enable-background:new 0 0 156.6 208.6;" xml:space="preserve">
<style type="text/css">
	.st0{fill:#ED1C24;}
</style>
<g>
	<path class="st0" d="M73.9,7.4l7.2,0C81,27,96.7,41.6,114.2,52.5c17.5,10.9,36.9,26.9,36.9,46.1c-0.1,17.1-10.5,34-24.4,49.7
		l-7.5,0c6.4-9.4,18.2-26.4,18.3-42.7C137.6,81.7,115,62.9,85.1,58l-0.5,102.4C84.6,181.6,62,203.7,34.8,201
		c-18.6-1.9-28.8-15.3-29.2-25.3c-0.9-17.7,17-32.9,36.9-33.2c15.7-0.2,26.4,10.3,30.7,12L73.9,7.4z"/>
</g>
</svg>
